{"header":{"keySignatures":[],"meta":[],"name":"","ppq":220,"tempos":[{"bpm":120,"ticks":0},{"bpm":120,"ticks":0},{"bpm":120,"ticks":0}],"timeSignatures":[]},"tracks":[{"channel":0,"controlChanges":{},"pitchBends":[],"instrument":{"family":"piano","name":"acoustic grand piano","number":0},"name":"","notes":[{"duration":0.25,"durationTicks":110,"midi":64,"name":"E4","ticks":0,"time":0,"velocity":0.7086614173228346},{"duration":0.125,"durationTicks":55,"midi":57,"name":"A3","ticks":110,"time":0.25,"velocity":0.7086614173228346},{"duration":0.25,"durationTicks":110,"midi":64,"name":"E4","ticks":165,"time":0.375,"velocity":0.7086614173228346},{"duration":0.125,"durationTicks":55,"midi":57,"name":"A3","ticks":275,"time":0.625,"velocity":0.7086614173228346},{"duration":0.25,"durationTicks":110,"midi":64,"name":"E4","ticks":330,"time":0.75,"velocity":0.7086614173228346},{"duration":0.25,"durationTicks":110,"midi":66,"name":"F#4","ticks":440,"time":1,"velocity":0.7086614173228346},{"duration":0.125,"durationTicks":55,"midi":57,"name":"A3","ticks":550,"time":1.25,"velocity":0.7086614173228346},{"duration":0.25,"durationTicks":110,"midi":66,"name":"F#4","ticks":605,"time":1.375,"velocity":0.7086614173228346},{"duration":0.125,"durationTicks":55,"midi":57,"name":"A3","ticks":715,"time":1.625,"velocity":0.7086614173228346},{"duration":0.125,"durationTicks":55,"midi":66,"name":"F#4","ticks":770,"time":1.75,"velocity":0.7086614173228346},{"duration":0.25,"durationTicks":110,"midi":55,"name":"G3","ticks":880,"time":2,"velocity":0.7086614173228346},{"duration":0.25,"durationTicks":110,"midi":67,"name":"G4","ticks":990,"time":2.25,"velocity":0.7086614173228346},{"duration":0.125,"durationTicks":55,"midi":55,"name":"G3","ticks":1100,"time":2.5,"velocity":0.7086614173228346},{"duration":0.25,"durationTicks":110,"midi":67,"name":"G4","ticks":1155,"time":2.625,"velocity":0.7086614173228346},{"duration":0.125,"durationTicks":55,"midi":55,"name":"G3","ticks":1265,"time":2.875,"velocity":0.7086614173228346},{"duration":0.375,"durationTicks":165,"midi":67,"name":"G4","ticks":1320,"time":3,"velocity":0.7086614173228346},{"duration":0.125,"durationTicks":55,"midi":67,"name":"G4","ticks":1485,"time":3.375,"velocity":0.7086614173228346},{"duration":0.25,"durationTicks":110,"midi":67,"name":"G4","ticks":1650,"time":3.75,"velocity":0.7086614173228346},{"duration":0.25,"durationTicks":110,"midi":64,"name":"E4","ticks":1760,"time":4,"velocity":0.7086614173228346},{"duration":0.25,"durationTicks":110,"midi":64,"name":"E4","ticks":1870,"time":4.25,"velocity":0.7086614173228346},{"duration":0.125,"durationTicks":55,"midi":64,"name":"E4","ticks":1980,"time":4.5,"velocity":0.7086614173228346},{"duration":0.25,"durationTicks":110,"midi":64,"name":"E4","ticks":2090,"time":4.75,"velocity":0.7086614173228346},{"duration":0.25,"durationTicks":110,"midi":66,"name":"F#4","ticks":2200,"time":5,"velocity":0.7086614173228346},{"duration":0.25,"durationTicks":110,"midi":66,"name":"F#4","ticks":2310,"time":5.25,"velocity":0.7086614173228346},{"duration":0.125,"durationTicks":55,"midi":66,"name":"F#4","ticks":2420,"time":5.5,"velocity":0.7086614173228346},{"duration":0.25,"durationTicks":110,"midi":66,"name":"F#4","ticks":2530,"time":5.75,"velocity":0.7086614173228346},{"duration":0.25,"durationTicks":110,"midi":55,"name":"G3","ticks":2640,"time":6,"velocity":0.7086614173228346},{"duration":0.25,"durationTicks":110,"midi":67,"name":"G4","ticks":2750,"time":6.25,"velocity":0.7086614173228346},{"duration":0.125,"durationTicks":55,"midi":55,"name":"G3","ticks":2860,"time":6.5,"velocity":0.7086614173228346},{"duration":0.25,"durationTicks":110,"midi":67,"name":"G4","ticks":2915,"time":6.625,"velocity":0.7086614173228346},{"duration":0.125,"durationTicks":55,"midi":55,"name":"G3","ticks":3025,"time":6.875,"velocity":0.7086614173228346},{"duration":0.25,"durationTicks":110,"midi":67,"name":"G4","ticks":3080,"time":7,"velocity":0.7086614173228346},{"duration":0.25,"durationTicks":110,"midi":55,"name":"G3","ticks":3190,"time":7.25,"velocity":0.7086614173228346},{"duration":0.25,"durationTicks":110,"midi":67,"name":"G4","ticks":3300,"time":7.5,"velocity":0.7086614173228346},{"duration":0.25,"durationTicks":110,"midi":55,"name":"G3","ticks":3410,"time":7.75,"velocity":0.7086614173228346},{"duration":0.25,"durationTicks":110,"midi":62,"name":"D4","ticks":3465,"time":7.875,"velocity":0.7086614173228346},{"duration":0.25,"durationTicks":110,"midi":66,"name":"F#4","ticks":3575,"time":8.125,"velocity":0.7086614173228346},{"duration":0.25,"durationTicks":110,"midi":69,"name":"A4","ticks":3685,"time":8.375,"velocity":0.7086614173228346},{"duration":0.25,"durationTicks":110,"midi":62,"name":"D4","ticks":3795,"time":8.625,"velocity":0.7086614173228346},{"duration":0.25,"durationTicks":110,"midi":66,"name":"F#4","ticks":3905,"time":8.875,"velocity":0.7086614173228346},{"duration":0.25,"durationTicks":110,"midi":69,"name":"A4","ticks":4015,"time":9.125,"velocity":0.7086614173228346},{"duration":0.25,"durationTicks":110,"midi":66,"name":"F#4","ticks":4125,"time":9.375,"velocity":0.7086614173228346},{"duration":0.25,"durationTicks":110,"midi":62,"name":"D4","ticks":4235,"time":9.625,"velocity":0.7086614173228346},{"duration":0.25,"durationTicks":110,"midi":62,"name":"D4","ticks":4345,"time":9.875,"velocity":0.7086614173228346},{"duration":0.25,"durationTicks":110,"midi":67,"name":"G4","ticks":4455,"time":10.125,"velocity":0.7086614173228346},{"duration":0.25,"durationTicks":110,"midi":69,"name":"A4","ticks":4565,"time":10.375,"velocity":0.7086614173228346},{"duration":0.25,"durationTicks":110,"midi":67,"name":"G4","ticks":4675,"time":10.625,"velocity":0.7086614173228346},{"duration":0.25,"durationTicks":110,"midi":66,"name":"F#4","ticks":4785,"time":10.875,"velocity":0.7086614173228346},{"duration":0.125,"durationTicks":55,"midi":67,"name":"G4","ticks":4895,"time":11.125,"velocity":0.7086614173228346},{"duration":0.25,"durationTicks":110,"midi":66,"name":"F#4","ticks":4950,"time":11.25,"velocity":0.7086614173228346},{"duration":0.125,"durationTicks":55,"midi":67,"name":"G4","ticks":5060,"time":11.5,"velocity":0.7086614173228346},{"duration":0.25,"durationTicks":110,"midi":69,"name":"A4","ticks":5115,"time":11.625,"velocity":0.7086614173228346},{"duration":0.25,"durationTicks":110,"midi":62,"name":"D4","ticks":5225,"time":11.875,"velocity":0.7086614173228346},{"duration":0.25,"durationTicks":110,"midi":62,"name":"D4","ticks":5335,"time":12.125,"velocity":0.7086614173228346},{"duration":0.25,"durationTicks":110,"midi":62,"name":"D4","ticks":5445,"time":12.375,"velocity":0.7086614173228346},{"duration":0.125,"durationTicks":55,"midi":62,"name":"D4","ticks":5555,"time":12.625,"velocity":0.7086614173228346},{"duration":0.25,"durationTicks":110,"midi":62,"name":"D4","ticks":5610,"time":12.75,"velocity":0.7086614173228346},{"duration":0.25,"durationTicks":110,"midi":62,"name":"D4","ticks":5720,"time":13,"velocity":0.7086614173228346},{"duration":0.125,"durationTicks":55,"midi":62,"name":"D4","ticks":5830,"time":13.25,"velocity":0.7086614173228346},{"duration":0.25,"durationTicks":110,"midi":62,"name":"D4","ticks":5885,"time":13.375,"velocity":0.7086614173228346},{"duration":0.25,"durationTicks":110,"midi":62,"name":"D4","ticks":5995,"time":13.625,"velocity":0.7086614173228346},{"duration":0.25,"durationTicks":110,"midi":62,"name":"D4","ticks":6105,"time":13.875,"velocity":0.7086614173228346},{"duration":0.25,"durationTicks":110,"midi":67,"name":"G4","ticks":6215,"time":14.125,"velocity":0.7086614173228346},{"duration":0.25,"durationTicks":110,"midi":67,"name":"G4","ticks":6325,"time":14.375,"velocity":0.7086614173228346},{"duration":0.25,"durationTicks":110,"midi":67,"name":"G4","ticks":6435,"time":14.625,"velocity":0.7086614173228346},{"duration":0.25,"durationTicks":110,"midi":67,"name":"G4","ticks":6545,"time":14.875,"velocity":0.7086614173228346},{"duration":0.25,"durationTicks":110,"midi":67,"name":"G4","ticks":6655,"time":15.125,"velocity":0.7086614173228346},{"duration":0.25,"durationTicks":110,"midi":67,"name":"G4","ticks":6765,"time":15.375,"velocity":0.7086614173228346},{"duration":0.25,"durationTicks":110,"midi":67,"name":"G4","ticks":6875,"time":15.625,"velocity":0.7086614173228346},{"duration":0.25,"durationTicks":110,"midi":66,"name":"F#4","ticks":6985,"time":15.875,"velocity":0.7086614173228346},{"duration":0.25,"durationTicks":110,"midi":66,"name":"F#4","ticks":7095,"time":16.125,"velocity":0.7086614173228346},{"duration":0.375,"durationTicks":165,"midi":66,"name":"F#4","ticks":7205,"time":16.375,"velocity":0.7086614173228346},{"duration":0.25,"durationTicks":110,"midi":66,"name":"F#4","ticks":7370,"time":16.75,"velocity":0.7086614173228346},{"duration":0.25,"durationTicks":110,"midi":66,"name":"F#4","ticks":7480,"time":17,"velocity":0.7086614173228346},{"duration":0.25,"durationTicks":110,"midi":66,"name":"F#4","ticks":7590,"time":17.25,"velocity":0.7086614173228346},{"duration":0.375,"durationTicks":165,"midi":66,"name":"F#4","ticks":7700,"time":17.5,"velocity":0.7086614173228346},{"duration":0.25,"durationTicks":110,"midi":67,"name":"G4","ticks":7865,"time":17.875,"velocity":0.7086614173228346},{"duration":0.25,"durationTicks":110,"midi":67,"name":"G4","ticks":7975,"time":18.125,"velocity":0.7086614173228346},{"duration":0.125,"durationTicks":55,"midi":67,"name":"G4","ticks":8085,"time":18.375,"velocity":0.7086614173228346},{"duration":0.25,"durationTicks":110,"midi":67,"name":"G4","ticks":8140,"time":18.5,"velocity":0.7086614173228346},{"duration":0.125,"durationTicks":55,"midi":67,"name":"G4","ticks":8250,"time":18.75,"velocity":0.7086614173228346},{"duration":0.25,"durationTicks":110,"midi":67,"name":"G4","ticks":8305,"time":18.875,"velocity":0.7086614173228346},{"duration":0.375,"durationTicks":165,"midi":67,"name":"G4","ticks":8415,"time":19.125,"velocity":0.7086614173228346},{"duration":0.375,"durationTicks":165,"midi":67,"name":"G4","ticks":8580,"time":19.5,"velocity":0.7086614173228346},{"duration":0.375,"durationTicks":165,"midi":71,"name":"B4","ticks":8745,"time":19.875,"velocity":0.7086614173228346},{"duration":0.25,"durationTicks":110,"midi":67,"name":"G4","ticks":8910,"time":20.25,"velocity":0.7086614173228346},{"duration":0.25,"durationTicks":110,"midi":71,"name":"B4","ticks":9020,"time":20.5,"velocity":0.7086614173228346},{"duration":0.25,"durationTicks":110,"midi":67,"name":"G4","ticks":9130,"time":20.75,"velocity":0.7086614173228346},{"duration":0.25,"durationTicks":110,"midi":71,"name":"B4","ticks":9240,"time":21,"velocity":0.7086614173228346},{"duration":0.25,"durationTicks":110,"midi":67,"name":"G4","ticks":9350,"time":21.25,"velocity":0.7086614173228346},{"duration":0.25,"durationTicks":110,"midi":71,"name":"B4","ticks":9460,"time":21.5,"velocity":0.7086614173228346},{"duration":0.25,"durationTicks":110,"midi":74,"name":"D5","ticks":9570,"time":21.75,"velocity":0.7086614173228346},{"duration":0.25,"durationTicks":110,"midi":67,"name":"G4","ticks":9680,"time":22,"velocity":0.7086614173228346},{"duration":0.25,"durationTicks":110,"midi":67,"name":"G4","ticks":9790,"time":22.25,"velocity":0.7086614173228346},{"duration":0.25,"durationTicks":110,"midi":74,"name":"D5","ticks":9900,"time":22.5,"velocity":0.7086614173228346},{"duration":0.25,"durationTicks":110,"midi":67,"name":"G4","ticks":10010,"time":22.75,"velocity":0.7086614173228346},{"duration":0.25,"durationTicks":110,"midi":74,"name":"D5","ticks":10120,"time":23,"velocity":0.7086614173228346},{"duration":0.25,"durationTicks":110,"midi":67,"name":"G4","ticks":10230,"time":23.25,"velocity":0.7086614173228346},{"duration":0.25,"durationTicks":110,"midi":74,"name":"D5","ticks":10340,"time":23.5,"velocity":0.7086614173228346},{"duration":0.25,"durationTicks":110,"midi":71,"name":"B4","ticks":10505,"time":23.875,"velocity":0.7086614173228346},{"duration":0.25,"durationTicks":110,"midi":71,"name":"B4","ticks":10615,"time":24.125,"velocity":0.7086614173228346},{"duration":0.25,"durationTicks":110,"midi":71,"name":"B4","ticks":10725,"time":24.375,"velocity":0.7086614173228346},{"duration":0.25,"durationTicks":110,"midi":71,"name":"B4","ticks":10835,"time":24.625,"velocity":0.7086614173228346},{"duration":0.25,"durationTicks":110,"midi":71,"name":"B4","ticks":10945,"time":24.875,"velocity":0.7086614173228346},{"duration":0.25,"durationTicks":110,"midi":71,"name":"B4","ticks":11055,"time":25.125,"velocity":0.7086614173228346},{"duration":0.25,"durationTicks":110,"midi":71,"name":"B4","ticks":11165,"time":25.375,"velocity":0.7086614173228346},{"duration":0.25,"durationTicks":110,"midi":71,"name":"B4","ticks":11275,"time":25.625,"velocity":0.7086614173228346},{"duration":0.125,"durationTicks":55,"midi":71,"name":"B4","ticks":11385,"time":25.875,"velocity":0.7086614173228346},{"duration":0.25,"durationTicks":110,"midi":71,"name":"B4","ticks":11440,"time":26,"velocity":0.7086614173228346},{"duration":0.125,"durationTicks":55,"midi":71,"name":"B4","ticks":11550,"time":26.25,"velocity":0.7086614173228346},{"duration":0.125,"durationTicks":55,"midi":71,"name":"B4","ticks":11605,"time":26.375,"velocity":0.7086614173228346},{"duration":0.25,"durationTicks":110,"midi":71,"name":"B4","ticks":11660,"time":26.5,"velocity":0.7086614173228346},{"duration":0.125,"durationTicks":55,"midi":71,"name":"B4","ticks":11770,"time":26.75,"velocity":0.7086614173228346},{"duration":0.125,"durationTicks":55,"midi":71,"name":"B4","ticks":11825,"time":26.875,"velocity":0.7086614173228346},{"duration":0.25,"durationTicks":110,"midi":71,"name":"B4","ticks":11880,"time":27,"velocity":0.7086614173228346},{"duration":0.25,"durationTicks":110,"midi":71,"name":"B4","ticks":11990,"time":27.25,"velocity":0.7086614173228346},{"duration":0.375,"durationTicks":165,"midi":71,"name":"B4","ticks":12100,"time":27.5,"velocity":0.7086614173228346},{"duration":0.5,"durationTicks":220,"midi":71,"name":"B4","ticks":12265,"time":27.875,"velocity":0.7086614173228346},{"duration":0.375,"durationTicks":165,"midi":71,"name":"B4","ticks":12485,"time":28.375,"velocity":0.7086614173228346},{"duration":0.25,"durationTicks":110,"midi":71,"name":"B4","ticks":12650,"time":28.75,"velocity":0.7086614173228346},{"duration":0.25,"durationTicks":110,"midi":71,"name":"B4","ticks":12760,"time":29,"velocity":0.7086614173228346},{"duration":0.125,"durationTicks":55,"midi":71,"name":"B4","ticks":12870,"time":29.25,"velocity":0.7086614173228346},{"duration":0.5,"durationTicks":220,"midi":71,"name":"B4","ticks":12925,"time":29.375,"velocity":0.7086614173228346},{"duration":0.25,"durationTicks":110,"midi":69,"name":"A4","ticks":13145,"time":29.875,"velocity":0.7086614173228346},{"duration":0.25,"durationTicks":110,"midi":69,"name":"A4","ticks":13255,"time":30.125,"velocity":0.7086614173228346},{"duration":0.5,"durationTicks":220,"midi":69,"name":"A4","ticks":13365,"time":30.375,"velocity":0.7086614173228346},{"duration":0.25,"durationTicks":110,"midi":71,"name":"B4","ticks":13420,"time":30.5,"velocity":0.7086614173228346},{"duration":0.25,"durationTicks":110,"midi":71,"name":"B4","ticks":13530,"time":30.75,"velocity":0.7086614173228346},{"duration":0.25,"durationTicks":110,"midi":69,"name":"A4","ticks":13585,"time":30.875,"velocity":0.7086614173228346},{"duration":0.25,"durationTicks":110,"midi":71,"name":"B4","ticks":13640,"time":31,"velocity":0.7086614173228346},{"duration":0.5,"durationTicks":220,"midi":69,"name":"A4","ticks":13695,"time":31.125,"velocity":0.7086614173228346},{"duration":0.25,"durationTicks":110,"midi":71,"name":"B4","ticks":13750,"time":31.25,"velocity":0.7086614173228346},{"duration":0.25,"durationTicks":110,"midi":71,"name":"B4","ticks":13860,"time":31.5,"velocity":0.7086614173228346},{"duration":0.125,"durationTicks":55,"midi":69,"name":"A4","ticks":13915,"time":31.625,"velocity":0.7086614173228346},{"duration":0.25,"durationTicks":110,"midi":71,"name":"B4","ticks":13970,"time":31.75,"velocity":0.7086614173228346},{"duration":0.5,"durationTicks":220,"midi":71,"name":"B4","ticks":14080,"time":32,"velocity":0.7086614173228346},{"duration":0.125,"durationTicks":55,"midi":71,"name":"B4","ticks":14300,"time":32.5,"velocity":0.7086614173228346},{"duration":0.125,"durationTicks":55,"midi":71,"name":"B4","ticks":14355,"time":32.625,"velocity":0.7086614173228346},{"duration":0.25,"durationTicks":110,"midi":71,"name":"B4","ticks":14410,"time":32.75,"velocity":0.7086614173228346},{"duration":0.125,"durationTicks":55,"midi":71,"name":"B4","ticks":14520,"time":33,"velocity":0.7086614173228346},{"duration":0.125,"durationTicks":55,"midi":71,"name":"B4","ticks":14575,"time":33.125,"velocity":0.7086614173228346},{"duration":0.25,"durationTicks":110,"midi":71,"name":"B4","ticks":14630,"time":33.25,"velocity":0.7086614173228346},{"duration":0.125,"durationTicks":55,"midi":71,"name":"B4","ticks":14740,"time":33.5,"velocity":0.7086614173228346},{"duration":0.125,"durationTicks":55,"midi":71,"name":"B4","ticks":14795,"time":33.625,"velocity":0.7086614173228346},{"duration":0.25,"durationTicks":110,"midi":71,"name":"B4","ticks":14850,"time":33.75,"velocity":0.7086614173228346},{"duration":0.25,"durationTicks":110,"midi":71,"name":"B4","ticks":14960,"time":34,"velocity":0.7086614173228346},{"duration":0.75,"durationTicks":330,"midi":71,"name":"B4","ticks":15070,"time":34.25,"velocity":0.7086614173228346},{"duration":1,"durationTicks":440,"midi":71,"name":"B4","ticks":15400,"time":35,"velocity":0.7086614173228346},{"duration":0.25,"durationTicks":110,"midi":71,"name":"B4","ticks":15840,"time":36,"velocity":0.7086614173228346},{"duration":0.25,"durationTicks":110,"midi":71,"name":"B4","ticks":15950,"time":36.25,"velocity":0.7086614173228346},{"duration":0.25,"durationTicks":110,"midi":70,"name":"A#4","ticks":16060,"time":36.5,"velocity":0.7086614173228346},{"duration":0.25,"durationTicks":110,"midi":70,"name":"A#4","ticks":16170,"time":36.75,"velocity":0.7086614173228346},{"duration":0.25,"durationTicks":110,"midi":83,"name":"B5","ticks":16170,"time":36.75,"velocity":0.7086614173228346},{"duration":0.5,"durationTicks":220,"midi":70,"name":"A#4","ticks":16280,"time":37,"velocity":0.7086614173228346},{"duration":0.25,"durationTicks":110,"midi":83,"name":"B5","ticks":16280,"time":37,"velocity":0.7086614173228346},{"duration":0.25,"durationTicks":110,"midi":83,"name":"B5","ticks":16390,"time":37.25,"velocity":0.7086614173228346},{"duration":0.25,"durationTicks":110,"midi":70,"name":"A#4","ticks":16500,"time":37.5,"velocity":0.7086614173228346},{"duration":0.25,"durationTicks":110,"midi":83,"name":"B5","ticks":16500,"time":37.5,"velocity":0.7086614173228346},{"duration":0.25,"durationTicks":110,"midi":70,"name":"A#4","ticks":16610,"time":37.75,"velocity":0.7086614173228346},{"duration":0.25,"durationTicks":110,"midi":83,"name":"B5","ticks":16610,"time":37.75,"velocity":0.7086614173228346},{"duration":0.375,"durationTicks":165,"midi":70,"name":"A#4","ticks":16720,"time":38,"velocity":0.7086614173228346},{"duration":0.25,"durationTicks":110,"midi":83,"name":"B5","ticks":16720,"time":38,"velocity":0.7086614173228346},{"duration":0.25,"durationTicks":110,"midi":83,"name":"B5","ticks":16830,"time":38.25,"velocity":0.7086614173228346},{"duration":0.25,"durationTicks":110,"midi":83,"name":"B5","ticks":16940,"time":38.5,"velocity":0.7086614173228346},{"duration":0.125,"durationTicks":55,"midi":83,"name":"B5","ticks":17050,"time":38.75,"velocity":0.7086614173228346},{"duration":0.125,"durationTicks":55,"midi":83,"name":"B5","ticks":17105,"time":38.875,"velocity":0.7086614173228346},{"duration":0.125,"durationTicks":55,"midi":83,"name":"B5","ticks":17160,"time":39,"velocity":0.7086614173228346},{"duration":0.125,"durationTicks":55,"midi":83,"name":"B5","ticks":17215,"time":39.125,"velocity":0.7086614173228346},{"duration":0.125,"durationTicks":55,"midi":83,"name":"B5","ticks":17270,"time":39.25,"velocity":0.7086614173228346},{"duration":0.125,"durationTicks":55,"midi":83,"name":"B5","ticks":17325,"time":39.375,"velocity":0.7086614173228346},{"duration":0.125,"durationTicks":55,"midi":83,"name":"B5","ticks":17380,"time":39.5,"velocity":0.7086614173228346},{"duration":0.125,"durationTicks":55,"midi":83,"name":"B5","ticks":17435,"time":39.625,"velocity":0.7086614173228346},{"duration":0.125,"durationTicks":55,"midi":83,"name":"B5","ticks":17490,"time":39.75,"velocity":0.7086614173228346},{"duration":0.125,"durationTicks":55,"midi":83,"name":"B5","ticks":17545,"time":39.875,"velocity":0.7086614173228346},{"duration":0.125,"durationTicks":55,"midi":83,"name":"B5","ticks":17600,"time":40,"velocity":0.7086614173228346},{"duration":0.125,"durationTicks":55,"midi":83,"name":"B5","ticks":17655,"time":40.125,"velocity":0.7086614173228346},{"duration":0.125,"durationTicks":55,"midi":83,"name":"B5","ticks":17710,"time":40.25,"velocity":0.7086614173228346},{"duration":0.125,"durationTicks":55,"midi":83,"name":"B5","ticks":17765,"time":40.375,"velocity":0.7086614173228346},{"duration":1.75,"durationTicks":770,"midi":83,"name":"B5","ticks":17820,"time":40.5,"velocity":0.7086614173228346},{"duration":0.25,"durationTicks":110,"midi":83,"name":"B5","ticks":18590,"time":42.25,"velocity":0.7086614173228346},{"duration":0.25,"durationTicks":110,"midi":83,"name":"B5","ticks":18700,"time":42.5,"velocity":0.7086614173228346},{"duration":0.5,"durationTicks":220,"midi":70,"name":"A#4","ticks":18810,"time":42.75,"velocity":0.7086614173228346},{"duration":0.5,"durationTicks":220,"midi":83,"name":"B5","ticks":18920,"time":43,"velocity":0.7086614173228346},{"duration":0.5,"durationTicks":220,"midi":70,"name":"A#4","ticks":19030,"time":43.25,"velocity":0.7086614173228346},{"duration":0.25,"durationTicks":110,"midi":83,"name":"B5","ticks":19140,"time":43.5,"velocity":0.7086614173228346},{"duration":0.5,"durationTicks":220,"midi":70,"name":"A#4","ticks":19250,"time":43.75,"velocity":0.7086614173228346},{"duration":0.25,"durationTicks":110,"midi":83,"name":"B5","ticks":19250,"time":43.75,"velocity":0.7086614173228346},{"duration":0.25,"durationTicks":110,"midi":83,"name":"B5","ticks":19360,"time":44,"velocity":0.7086614173228346},{"duration":0.375,"durationTicks":165,"midi":70,"name":"A#4","ticks":19470,"time":44.25,"velocity":0.7086614173228346},{"duration":0.25,"durationTicks":110,"midi":83,"name":"B5","ticks":19470,"time":44.25,"velocity":0.7086614173228346},{"duration":0.25,"durationTicks":110,"midi":83,"name":"B5","ticks":19580,"time":44.5,"velocity":0.7086614173228346},{"duration":0.25,"durationTicks":110,"midi":83,"name":"B5","ticks":19690,"time":44.75,"velocity":0.7086614173228346},{"duration":0.125,"durationTicks":55,"midi":83,"name":"B5","ticks":19800,"time":45,"velocity":0.7086614173228346},{"duration":0.125,"durationTicks":55,"midi":83,"name":"B5","ticks":19855,"time":45.125,"velocity":0.7086614173228346},{"duration":0.125,"durationTicks":55,"midi":83,"name":"B5","ticks":19910,"time":45.25,"velocity":0.7086614173228346},{"duration":0.125,"durationTicks":55,"midi":83,"name":"B5","ticks":19965,"time":45.375,"velocity":0.7086614173228346},{"duration":0.125,"durationTicks":55,"midi":83,"name":"B5","ticks":20020,"time":45.5,"velocity":0.7086614173228346},{"duration":0.125,"durationTicks":55,"midi":83,"name":"B5","ticks":20075,"time":45.625,"velocity":0.7086614173228346},{"duration":0.125,"durationTicks":55,"midi":83,"name":"B5","ticks":20130,"time":45.75,"velocity":0.7086614173228346},{"duration":0.125,"durationTicks":55,"midi":83,"name":"B5","ticks":20185,"time":45.875,"velocity":0.7086614173228346},{"duration":0.125,"durationTicks":55,"midi":83,"name":"B5","ticks":20240,"time":46,"velocity":0.7086614173228346},{"duration":0.125,"durationTicks":55,"midi":83,"name":"B5","ticks":20295,"time":46.125,"velocity":0.7086614173228346},{"duration":0.125,"durationTicks":55,"midi":83,"name":"B5","ticks":20350,"time":46.25,"velocity":0.7086614173228346},{"duration":0.125,"durationTicks":55,"midi":83,"name":"B5","ticks":20405,"time":46.375,"velocity":0.7086614173228346},{"duration":0.125,"durationTicks":55,"midi":83,"name":"B5","ticks":20460,"time":46.5,"velocity":0.7086614173228346},{"duration":0.125,"durationTicks":55,"midi":83,"name":"B5","ticks":20515,"time":46.625,"velocity":0.7086614173228346},{"duration":2.25,"durationTicks":990,"midi":83,"name":"B5","ticks":20570,"time":46.75,"velocity":0.7086614173228346},{"duration":0.5,"durationTicks":220,"midi":70,"name":"A#4","ticks":21560,"time":49,"velocity":0.7086614173228346},{"duration":0.5,"durationTicks":220,"midi":83,"name":"B5","ticks":21670,"time":49.25,"velocity":0.7086614173228346},{"duration":0.5,"durationTicks":220,"midi":70,"name":"A#4","ticks":21780,"time":49.5,"velocity":0.7086614173228346},{"duration":0.5,"durationTicks":220,"midi":83,"name":"B5","ticks":21890,"time":49.75,"velocity":0.7086614173228346},{"duration":0.5,"durationTicks":220,"midi":70,"name":"A#4","ticks":22000,"time":50,"velocity":0.7086614173228346},{"duration":0.25,"durationTicks":110,"midi":83,"name":"B5","ticks":22110,"time":50.25,"velocity":0.7086614173228346},{"duration":0.375,"durationTicks":165,"midi":70,"name":"A#4","ticks":22220,"time":50.5,"velocity":0.7086614173228346},{"duration":0.25,"durationTicks":110,"midi":83,"name":"B5","ticks":22220,"time":50.5,"velocity":0.7086614173228346},{"duration":0.25,"durationTicks":110,"midi":83,"name":"B5","ticks":22330,"time":50.75,"velocity":0.7086614173228346},{"duration":0.25,"durationTicks":110,"midi":83,"name":"B5","ticks":22440,"time":51,"velocity":0.7086614173228346},{"duration":0.125,"durationTicks":55,"midi":83,"name":"B5","ticks":22550,"time":51.25,"velocity":0.7086614173228346},{"duration":0.125,"durationTicks":55,"midi":83,"name":"B5","ticks":22605,"time":51.375,"velocity":0.7086614173228346},{"duration":0.125,"durationTicks":55,"midi":83,"name":"B5","ticks":22660,"time":51.5,"velocity":0.7086614173228346},{"duration":0.125,"durationTicks":55,"midi":83,"name":"B5","ticks":22715,"time":51.625,"velocity":0.7086614173228346},{"duration":0.125,"durationTicks":55,"midi":83,"name":"B5","ticks":22770,"time":51.75,"velocity":0.7086614173228346},{"duration":0.125,"durationTicks":55,"midi":83,"name":"B5","ticks":22825,"time":51.875,"velocity":0.7086614173228346},{"duration":0.125,"durationTicks":55,"midi":83,"name":"B5","ticks":22880,"time":52,"velocity":0.7086614173228346},{"duration":0.125,"durationTicks":55,"midi":83,"name":"B5","ticks":22935,"time":52.125,"velocity":0.7086614173228346},{"duration":0.125,"durationTicks":55,"midi":83,"name":"B5","ticks":22990,"time":52.25,"velocity":0.7086614173228346},{"duration":0.125,"durationTicks":55,"midi":83,"name":"B5","ticks":23045,"time":52.375,"velocity":0.7086614173228346},{"duration":0.125,"durationTicks":55,"midi":83,"name":"B5","ticks":23100,"time":52.5,"velocity":0.7086614173228346},{"duration":0.125,"durationTicks":55,"midi":83,"name":"B5","ticks":23155,"time":52.625,"velocity":0.7086614173228346},{"duration":0.125,"durationTicks":55,"midi":83,"name":"B5","ticks":23210,"time":52.75,"velocity":0.7086614173228346},{"duration":0.125,"durationTicks":55,"midi":83,"name":"B5","ticks":23265,"time":52.875,"velocity":0.7086614173228346},{"duration":2.25,"durationTicks":990,"midi":83,"name":"B5","ticks":23320,"time":53,"velocity":0.7086614173228346},{"duration":0.5,"durationTicks":220,"midi":70,"name":"A#4","ticks":24310,"time":55.25,"velocity":0.7086614173228346},{"duration":0.5,"durationTicks":220,"midi":83,"name":"B5","ticks":24420,"time":55.5,"velocity":0.7086614173228346},{"duration":0.5,"durationTicks":220,"midi":70,"name":"A#4","ticks":24530,"time":55.75,"velocity":0.7086614173228346},{"duration":0.5,"durationTicks":220,"midi":83,"name":"B5","ticks":24640,"time":56,"velocity":0.7086614173228346},{"duration":0.5,"durationTicks":220,"midi":75,"name":"D#5","ticks":24750,"time":56.25,"velocity":0.7086614173228346},{"duration":0.5,"durationTicks":220,"midi":83,"name":"B5","ticks":24860,"time":56.5,"velocity":0.7086614173228346},{"duration":0.375,"durationTicks":165,"midi":70,"name":"A#4","ticks":24970,"time":56.75,"velocity":0.7086614173228346},{"duration":0.25,"durationTicks":110,"midi":83,"name":"B5","ticks":25080,"time":57,"velocity":0.7086614173228346},{"duration":0.25,"durationTicks":110,"midi":83,"name":"B5","ticks":25190,"time":57.25,"velocity":0.7086614173228346},{"duration":0.125,"durationTicks":55,"midi":83,"name":"B5","ticks":25300,"time":57.5,"velocity":0.7086614173228346},{"duration":0.125,"durationTicks":55,"midi":83,"name":"B5","ticks":25355,"time":57.625,"velocity":0.7086614173228346},{"duration":0.125,"durationTicks":55,"midi":83,"name":"B5","ticks":25410,"time":57.75,"velocity":0.7086614173228346},{"duration":0.125,"durationTicks":55,"midi":83,"name":"B5","ticks":25465,"time":57.875,"velocity":0.7086614173228346},{"duration":0.125,"durationTicks":55,"midi":83,"name":"B5","ticks":25520,"time":58,"velocity":0.7086614173228346},{"duration":0.125,"durationTicks":55,"midi":83,"name":"B5","ticks":25575,"time":58.125,"velocity":0.7086614173228346},{"duration":0.125,"durationTicks":55,"midi":83,"name":"B5","ticks":25630,"time":58.25,"velocity":0.7086614173228346},{"duration":0.125,"durationTicks":55,"midi":83,"name":"B5","ticks":25685,"time":58.375,"velocity":0.7086614173228346},{"duration":0.125,"durationTicks":55,"midi":83,"name":"B5","ticks":25740,"time":58.5,"velocity":0.7086614173228346},{"duration":0.125,"durationTicks":55,"midi":83,"name":"B5","ticks":25795,"time":58.625,"velocity":0.7086614173228346},{"duration":0.125,"durationTicks":55,"midi":83,"name":"B5","ticks":25850,"time":58.75,"velocity":0.7086614173228346},{"duration":0.125,"durationTicks":55,"midi":83,"name":"B5","ticks":25905,"time":58.875,"velocity":0.7086614173228346},{"duration":0.125,"durationTicks":55,"midi":83,"name":"B5","ticks":25960,"time":59,"velocity":0.7086614173228346},{"duration":0.125,"durationTicks":55,"midi":83,"name":"B5","ticks":26015,"time":59.125,"velocity":0.7086614173228346},{"duration":2.25,"durationTicks":990,"midi":83,"name":"B5","ticks":26070,"time":59.25,"velocity":0.7086614173228346},{"duration":0.5,"durationTicks":220,"midi":70,"name":"A#4","ticks":27060,"time":61.5,"velocity":0.7086614173228346},{"duration":0.5,"durationTicks":220,"midi":83,"name":"B5","ticks":27170,"time":61.75,"velocity":0.7086614173228346},{"duration":1.375,"durationTicks":605,"midi":70,"name":"A#4","ticks":27280,"time":62,"velocity":0.7086614173228346},{"duration":0.5,"durationTicks":220,"midi":83,"name":"B5","ticks":27390,"time":62.25,"velocity":0.7086614173228346},{"duration":0.5,"durationTicks":220,"midi":83,"name":"B5","ticks":27610,"time":62.75,"velocity":0.7086614173228346},{"duration":0.5,"durationTicks":220,"midi":83,"name":"B5","ticks":27830,"time":63.25,"velocity":0.7086614173228346},{"duration":0.125,"durationTicks":55,"midi":83,"name":"B5","ticks":28050,"time":63.75,"velocity":0.7086614173228346},{"duration":0.125,"durationTicks":55,"midi":83,"name":"B5","ticks":28105,"time":63.875,"velocity":0.7086614173228346},{"duration":0.125,"durationTicks":55,"midi":83,"name":"B5","ticks":28160,"time":64,"velocity":0.7086614173228346},{"duration":0.125,"durationTicks":55,"midi":83,"name":"B5","ticks":28215,"time":64.125,"velocity":0.7086614173228346},{"duration":0.125,"durationTicks":55,"midi":83,"name":"B5","ticks":28270,"time":64.25,"velocity":0.7086614173228346},{"duration":0.125,"durationTicks":55,"midi":83,"name":"B5","ticks":28325,"time":64.375,"velocity":0.7086614173228346},{"duration":0.125,"durationTicks":55,"midi":83,"name":"B5","ticks":28380,"time":64.5,"velocity":0.7086614173228346},{"duration":0.125,"durationTicks":55,"midi":83,"name":"B5","ticks":28435,"time":64.625,"velocity":0.7086614173228346},{"duration":0.125,"durationTicks":55,"midi":83,"name":"B5","ticks":28490,"time":64.75,"velocity":0.7086614173228346},{"duration":0.125,"durationTicks":55,"midi":83,"name":"B5","ticks":28545,"time":64.875,"velocity":0.7086614173228346},{"duration":0.125,"durationTicks":55,"midi":83,"name":"B5","ticks":28600,"time":65,"velocity":0.7086614173228346},{"duration":0.125,"durationTicks":55,"midi":83,"name":"B5","ticks":28655,"time":65.125,"velocity":0.7086614173228346},{"duration":0.125,"durationTicks":55,"midi":83,"name":"B5","ticks":28710,"time":65.25,"velocity":0.7086614173228346},{"duration":0.125,"durationTicks":55,"midi":83,"name":"B5","ticks":28765,"time":65.375,"velocity":0.7086614173228346},{"duration":2.25,"durationTicks":990,"midi":83,"name":"B5","ticks":28820,"time":65.5,"velocity":0.7086614173228346},{"duration":1,"durationTicks":440,"midi":70,"name":"A#4","ticks":29810,"time":67.75,"velocity":0.7086614173228346},{"duration":0.5,"durationTicks":220,"midi":83,"name":"B5","ticks":29920,"time":68,"velocity":0.7086614173228346},{"duration":0.5,"durationTicks":220,"midi":83,"name":"B5","ticks":30140,"time":68.5,"velocity":0.7086614173228346},{"duration":0.875,"durationTicks":385,"midi":70,"name":"A#4","ticks":30250,"time":68.75,"velocity":0.7086614173228346},{"duration":0.5,"durationTicks":220,"midi":83,"name":"B5","ticks":30360,"time":69,"velocity":0.7086614173228346},{"duration":0.5,"durationTicks":220,"midi":83,"name":"B5","ticks":30580,"time":69.5,"velocity":0.7086614173228346},{"duration":0.125,"durationTicks":55,"midi":83,"name":"B5","ticks":30800,"time":70,"velocity":0.7086614173228346},{"duration":0.125,"durationTicks":55,"midi":83,"name":"B5","ticks":30855,"time":70.125,"velocity":0.7086614173228346},{"duration":0.125,"durationTicks":55,"midi":83,"name":"B5","ticks":30910,"time":70.25,"velocity":0.7086614173228346},{"duration":0.125,"durationTicks":55,"midi":83,"name":"B5","ticks":30965,"time":70.375,"velocity":0.7086614173228346},{"duration":0.125,"durationTicks":55,"midi":83,"name":"B5","ticks":31020,"time":70.5,"velocity":0.7086614173228346},{"duration":0.125,"durationTicks":55,"midi":83,"name":"B5","ticks":31075,"time":70.625,"velocity":0.7086614173228346},{"duration":0.125,"durationTicks":55,"midi":83,"name":"B5","ticks":31130,"time":70.75,"velocity":0.7086614173228346},{"duration":0.125,"durationTicks":55,"midi":83,"name":"B5","ticks":31185,"time":70.875,"velocity":0.7086614173228346},{"duration":0.125,"durationTicks":55,"midi":83,"name":"B5","ticks":31240,"time":71,"velocity":0.7086614173228346},{"duration":0.125,"durationTicks":55,"midi":83,"name":"B5","ticks":31295,"time":71.125,"velocity":0.7086614173228346},{"duration":0.125,"durationTicks":55,"midi":83,"name":"B5","ticks":31350,"time":71.25,"velocity":0.7086614173228346},{"duration":0.125,"durationTicks":55,"midi":83,"name":"B5","ticks":31405,"time":71.375,"velocity":0.7086614173228346},{"duration":0.125,"durationTicks":55,"midi":83,"name":"B5","ticks":31460,"time":71.5,"velocity":0.7086614173228346},{"duration":0.125,"durationTicks":55,"midi":83,"name":"B5","ticks":31515,"time":71.625,"velocity":0.7086614173228346},{"duration":2.25,"durationTicks":990,"midi":83,"name":"B5","ticks":31570,"time":71.75,"velocity":0.7086614173228346},{"duration":1.875,"durationTicks":825,"midi":70,"name":"A#4","ticks":32560,"time":74,"velocity":0.7086614173228346}]},{"channel":0,"controlChanges":{},"pitchBends":[],"instrument":{"family":"bass","name":"acoustic bass","number":32},"name":"","notes":[{"duration":0.5,"durationTicks":220,"midi":38,"name":"D2","ticks":0,"time":0,"velocity":0.7086614173228346},{"duration":0.5,"durationTicks":220,"midi":38,"name":"D2","ticks":330,"time":0.75,"velocity":0.7086614173228346},{"duration":0.5,"durationTicks":220,"midi":33,"name":"A1","ticks":550,"time":1.25,"velocity":0.7086614173228346},{"duration":0.25,"durationTicks":110,"midi":36,"name":"C2","ticks":770,"time":1.75,"velocity":0.7086614173228346},{"duration":0.5,"durationTicks":220,"midi":31,"name":"G1","ticks":880,"time":2,"velocity":0.7086614173228346},{"duration":0.25,"durationTicks":110,"midi":38,"name":"D2","ticks":1210,"time":2.75,"velocity":0.7086614173228346},{"duration":0.5,"durationTicks":220,"midi":43,"name":"G2","ticks":1320,"time":3,"velocity":0.7086614173228346},{"duration":0.5,"durationTicks":220,"midi":40,"name":"E2","ticks":1540,"time":3.5,"velocity":0.7086614173228346},{"duration":0.5,"durationTicks":220,"midi":38,"name":"D2","ticks":1760,"time":4,"velocity":0.7086614173228346},{"duration":0.25,"durationTicks":110,"midi":33,"name":"A1","ticks":2090,"time":4.75,"velocity":0.7086614173228346},{"duration":0.5,"durationTicks":220,"midi":38,"name":"D2","ticks":2200,"time":5,"velocity":0.7086614173228346},{"duration":0.5,"durationTicks":220,"midi":42,"name":"F#2","ticks":2420,"time":5.5,"velocity":0.7086614173228346},{"duration":0.5,"durationTicks":220,"midi":31,"name":"G1","ticks":2640,"time":6,"velocity":0.7086614173228346},{"duration":0.25,"durationTicks":110,"midi":38,"name":"D2","ticks":2970,"time":6.75,"velocity":0.7086614173228346},{"duration":0.5,"durationTicks":220,"midi":43,"name":"G2","ticks":3080,"time":7,"velocity":0.7086614173228346},{"duration":0.5,"durationTicks":220,"midi":38,"name":"D2","ticks":3300,"time":7.5,"velocity":0.7086614173228346},{"duration":0.75,"durationTicks":330,"midi":38,"name":"D2","ticks":3465,"time":7.875,"velocity":0.7086614173228346},{"duration":0.25,"durationTicks":110,"midi":33,"name":"A1","ticks":3795,"time":8.625,"velocity":0.7086614173228346},{"duration":0.875,"durationTicks":385,"midi":35,"name":"B1","ticks":3905,"time":8.875,"velocity":0.7086614173228346},{"duration":0.5,"durationTicks":220,"midi":38,"name":"D2","ticks":4345,"time":9.875,"velocity":0.7086614173228346},{"duration":1.125,"durationTicks":495,"midi":36,"name":"C2","ticks":4675,"time":10.625,"velocity":0.7086614173228346},{"duration":0.625,"durationTicks":275,"midi":40,"name":"E2","ticks":5225,"time":11.875,"velocity":0.7086614173228346},{"duration":0.75,"durationTicks":330,"midi":38,"name":"D2","ticks":5555,"time":12.625,"velocity":0.7086614173228346},{"duration":0.5,"durationTicks":220,"midi":33,"name":"A1","ticks":5885,"time":13.375,"velocity":0.7086614173228346},{"duration":0.5,"durationTicks":220,"midi":38,"name":"D2","ticks":6105,"time":13.875,"velocity":0.7086614173228346},{"duration":0.5,"durationTicks":220,"midi":38,"name":"D2","ticks":6325,"time":14.375,"velocity":0.7086614173228346},{"duration":0.875,"durationTicks":385,"midi":41,"name":"F2","ticks":6545,"time":14.875,"velocity":0.7086614173228346},{"duration":1.25,"durationTicks":550,"midi":35,"name":"B1","ticks":6930,"time":15.75,"velocity":0.7086614173228346},{"duration":0.5,"durationTicks":220,"midi":30,"name":"F#1","ticks":7480,"time":17,"velocity":0.7086614173228346},{"duration":0.375,"durationTicks":165,"midi":33,"name":"A1","ticks":7700,"time":17.5,"velocity":0.7086614173228346},{"duration":2.5,"durationTicks":1100,"midi":33,"name":"A1","ticks":7865,"time":17.875,"velocity":0.7086614173228346},{"duration":1.75,"durationTicks":770,"midi":35,"name":"B1","ticks":9020,"time":20.5,"velocity":0.7086614173228346},{"duration":1.5,"durationTicks":660,"midi":34,"name":"A#1","ticks":9790,"time":22.25,"velocity":0.7086614173228346},{"duration":1.5,"durationTicks":660,"midi":35,"name":"B1","ticks":10505,"time":23.875,"velocity":0.7086614173228346},{"duration":0.125,"durationTicks":55,"midi":30,"name":"F#1","ticks":11165,"time":25.375,"velocity":0.7086614173228346},{"duration":0.375,"durationTicks":165,"midi":35,"name":"B1","ticks":11220,"time":25.5,"velocity":0.7086614173228346},{"duration":2.5,"durationTicks":1100,"midi":35,"name":"B1","ticks":11385,"time":25.875,"velocity":0.7086614173228346},{"duration":3.375,"durationTicks":1485,"midi":40,"name":"E2","ticks":12485,"time":28.375,"velocity":0.7086614173228346},{"duration":1.625,"durationTicks":715,"midi":37,"name":"C#2","ticks":13420,"time":30.5,"velocity":0.7086614173228346},{"duration":0.125,"durationTicks":55,"midi":25,"name":"C#1","ticks":14135,"time":32.125,"velocity":0.7086614173228346},{"duration":5.875,"durationTicks":2585,"midi":35,"name":"B1","ticks":14300,"time":32.5,"velocity":0.7086614173228346},{"duration":1.75,"durationTicks":770,"midi":37,"name":"C#2","ticks":16170,"time":36.75,"velocity":0.7086614173228346},{"duration":0.125,"durationTicks":55,"midi":25,"name":"C#1","ticks":16940,"time":38.5,"velocity":0.7086614173228346},{"duration":5.875,"durationTicks":2585,"midi":35,"name":"B1","ticks":17050,"time":38.75,"velocity":0.7086614173228346},{"duration":1.75,"durationTicks":770,"midi":37,"name":"C#2","ticks":18920,"time":43,"velocity":0.7086614173228346},{"duration":0.125,"durationTicks":55,"midi":25,"name":"C#1","ticks":19690,"time":44.75,"velocity":0.7086614173228346},{"duration":5.875,"durationTicks":2585,"midi":35,"name":"B1","ticks":19800,"time":45,"velocity":0.7086614173228346},{"duration":2,"durationTicks":880,"midi":37,"name":"C#2","ticks":21670,"time":49.25,"velocity":0.7086614173228346},{"duration":5.875,"durationTicks":2585,"midi":35,"name":"B1","ticks":22550,"time":51.25,"velocity":0.7086614173228346},{"duration":2,"durationTicks":880,"midi":37,"name":"C#2","ticks":24420,"time":55.5,"velocity":0.7086614173228346},{"duration":5.875,"durationTicks":2585,"midi":35,"name":"B1","ticks":25300,"time":57.5,"velocity":0.7086614173228346},{"duration":2,"durationTicks":880,"midi":37,"name":"C#2","ticks":27170,"time":61.75,"velocity":0.7086614173228346},{"duration":5.875,"durationTicks":2585,"midi":35,"name":"B1","ticks":28050,"time":63.75,"velocity":0.7086614173228346},{"duration":2,"durationTicks":880,"midi":37,"name":"C#2","ticks":29920,"time":68,"velocity":0.7086614173228346},{"duration":5.875,"durationTicks":2585,"midi":35,"name":"B1","ticks":30800,"time":70,"velocity":0.7086614173228346}]},{"channel":9,"controlChanges":{},"pitchBends":[],"instrument":{"family":"drums","name":"standard kit","number":0},"name":"","notes":[{"duration":0.125,"durationTicks":55,"midi":36,"name":"C2","ticks":0,"time":0,"velocity":0.7086614173228346},{"duration":0.125,"durationTicks":55,"midi":42,"name":"F#2","ticks":0,"time":0,"velocity":0.7086614173228346},{"duration":0.125,"durationTicks":55,"midi":42,"name":"F#2","ticks":110,"time":0.25,"velocity":0.7086614173228346},{"duration":0.125,"durationTicks":55,"midi":36,"name":"C2","ticks":165,"time":0.375,"velocity":0.7086614173228346},{"duration":0.125,"durationTicks":55,"midi":38,"name":"D2","ticks":220,"time":0.5,"velocity":0.7086614173228346},{"duration":0.125,"durationTicks":55,"midi":42,"name":"F#2","ticks":220,"time":0.5,"velocity":0.7086614173228346},{"duration":0.125,"durationTicks":55,"midi":36,"name":"C2","ticks":330,"time":0.75,"velocity":0.7086614173228346},{"duration":0.125,"durationTicks":55,"midi":42,"name":"F#2","ticks":330,"time":0.75,"velocity":0.7086614173228346},{"duration":0.125,"durationTicks":55,"midi":42,"name":"F#2","ticks":440,"time":1,"velocity":0.7086614173228346},{"duration":0.125,"durationTicks":55,"midi":36,"name":"C2","ticks":550,"time":1.25,"velocity":0.7086614173228346},{"duration":0.125,"durationTicks":55,"midi":42,"name":"F#2","ticks":550,"time":1.25,"velocity":0.7086614173228346},{"duration":0.125,"durationTicks":55,"midi":38,"name":"D2","ticks":660,"time":1.5,"velocity":0.7086614173228346},{"duration":0.125,"durationTicks":55,"midi":42,"name":"F#2","ticks":660,"time":1.5,"velocity":0.7086614173228346},{"duration":0.125,"durationTicks":55,"midi":46,"name":"A#2","ticks":770,"time":1.75,"velocity":0.7086614173228346},{"duration":0.125,"durationTicks":55,"midi":36,"name":"C2","ticks":880,"time":2,"velocity":0.7086614173228346},{"duration":0.125,"durationTicks":55,"midi":42,"name":"F#2","ticks":880,"time":2,"velocity":0.7086614173228346},{"duration":0.125,"durationTicks":55,"midi":42,"name":"F#2","ticks":990,"time":2.25,"velocity":0.7086614173228346},{"duration":0.125,"durationTicks":55,"midi":36,"name":"C2","ticks":1045,"time":2.375,"velocity":0.7086614173228346},{"duration":0.125,"durationTicks":55,"midi":38,"name":"D2","ticks":1100,"time":2.5,"velocity":0.7086614173228346},{"duration":0.125,"durationTicks":55,"midi":42,"name":"F#2","ticks":1100,"time":2.5,"velocity":0.7086614173228346},{"duration":0.125,"durationTicks":55,"midi":36,"name":"C2","ticks":1210,"time":2.75,"velocity":0.7086614173228346},{"duration":0.125,"durationTicks":55,"midi":42,"name":"F#2","ticks":1210,"time":2.75,"velocity":0.7086614173228346},{"duration":0.125,"durationTicks":55,"midi":42,"name":"F#2","ticks":1320,"time":3,"velocity":0.7086614173228346},{"duration":0.125,"durationTicks":55,"midi":36,"name":"C2","ticks":1430,"time":3.25,"velocity":0.7086614173228346},{"duration":0.125,"durationTicks":55,"midi":42,"name":"F#2","ticks":1430,"time":3.25,"velocity":0.7086614173228346},{"duration":0.125,"durationTicks":55,"midi":38,"name":"D2","ticks":1540,"time":3.5,"velocity":0.7086614173228346},{"duration":0.125,"durationTicks":55,"midi":42,"name":"F#2","ticks":1540,"time":3.5,"velocity":0.7086614173228346},{"duration":0.125,"durationTicks":55,"midi":38,"name":"D2","ticks":1595,"time":3.625,"velocity":0.7086614173228346},{"duration":0.125,"durationTicks":55,"midi":38,"name":"D2","ticks":1650,"time":3.75,"velocity":0.7086614173228346},{"duration":0.125,"durationTicks":55,"midi":38,"name":"D2","ticks":1705,"time":3.875,"velocity":0.7086614173228346},{"duration":0.125,"durationTicks":55,"midi":36,"name":"C2","ticks":1760,"time":4,"velocity":0.7086614173228346},{"duration":0.125,"durationTicks":55,"midi":49,"name":"C#3","ticks":1760,"time":4,"velocity":0.7086614173228346},{"duration":0.125,"durationTicks":55,"midi":42,"name":"F#2","ticks":1870,"time":4.25,"velocity":0.7086614173228346},{"duration":0.125,"durationTicks":55,"midi":38,"name":"D2","ticks":1980,"time":4.5,"velocity":0.7086614173228346},{"duration":0.125,"durationTicks":55,"midi":42,"name":"F#2","ticks":1980,"time":4.5,"velocity":0.7086614173228346},{"duration":0.125,"durationTicks":55,"midi":36,"name":"C2","ticks":2090,"time":4.75,"velocity":0.7086614173228346},{"duration":0.125,"durationTicks":55,"midi":42,"name":"F#2","ticks":2090,"time":4.75,"velocity":0.7086614173228346},{"duration":0.125,"durationTicks":55,"midi":42,"name":"F#2","ticks":2200,"time":5,"velocity":0.7086614173228346},{"duration":0.125,"durationTicks":55,"midi":36,"name":"C2","ticks":2310,"time":5.25,"velocity":0.7086614173228346},{"duration":0.125,"durationTicks":55,"midi":42,"name":"F#2","ticks":2310,"time":5.25,"velocity":0.7086614173228346},{"duration":0.125,"durationTicks":55,"midi":38,"name":"D2","ticks":2420,"time":5.5,"velocity":0.7086614173228346},{"duration":0.125,"durationTicks":55,"midi":42,"name":"F#2","ticks":2420,"time":5.5,"velocity":0.7086614173228346},{"duration":0.125,"durationTicks":55,"midi":36,"name":"C2","ticks":2530,"time":5.75,"velocity":0.7086614173228346},{"duration":0.125,"durationTicks":55,"midi":46,"name":"A#2","ticks":2530,"time":5.75,"velocity":0.7086614173228346},{"duration":0.125,"durationTicks":55,"midi":36,"name":"C2","ticks":2640,"time":6,"velocity":0.7086614173228346},{"duration":0.125,"durationTicks":55,"midi":42,"name":"F#2","ticks":2640,"time":6,"velocity":0.7086614173228346},{"duration":0.125,"durationTicks":55,"midi":42,"name":"F#2","ticks":2750,"time":6.25,"velocity":0.7086614173228346},{"duration":0.125,"durationTicks":55,"midi":36,"name":"C2","ticks":2805,"time":6.375,"velocity":0.7086614173228346},{"duration":0.125,"durationTicks":55,"midi":38,"name":"D2","ticks":2860,"time":6.5,"velocity":0.7086614173228346},{"duration":0.125,"durationTicks":55,"midi":42,"name":"F#2","ticks":2860,"time":6.5,"velocity":0.7086614173228346},{"duration":0.125,"durationTicks":55,"midi":36,"name":"C2","ticks":2970,"time":6.75,"velocity":0.7086614173228346},{"duration":0.125,"durationTicks":55,"midi":42,"name":"F#2","ticks":2970,"time":6.75,"velocity":0.7086614173228346},{"duration":0.125,"durationTicks":55,"midi":42,"name":"F#2","ticks":3080,"time":7,"velocity":0.7086614173228346},{"duration":0.125,"durationTicks":55,"midi":36,"name":"C2","ticks":3190,"time":7.25,"velocity":0.7086614173228346},{"duration":0.125,"durationTicks":55,"midi":42,"name":"F#2","ticks":3190,"time":7.25,"velocity":0.7086614173228346},{"duration":0.125,"durationTicks":55,"midi":38,"name":"D2","ticks":3300,"time":7.5,"velocity":0.7086614173228346},{"duration":0.125,"durationTicks":55,"midi":42,"name":"F#2","ticks":3300,"time":7.5,"velocity":0.7086614173228346},{"duration":0.125,"durationTicks":55,"midi":46,"name":"A#2","ticks":3410,"time":7.75,"velocity":0.7086614173228346},{"duration":0.125,"durationTicks":55,"midi":36,"name":"C2","ticks":3465,"time":7.875,"velocity":0.7086614173228346},{"duration":0.125,"durationTicks":55,"midi":42,"name":"F#2","ticks":3465,"time":7.875,"velocity":0.7086614173228346},{"duration":0.125,"durationTicks":55,"midi":42,"name":"F#2","ticks":3575,"time":8.125,"velocity":0.7086614173228346},{"duration":0.125,"durationTicks":55,"midi":38,"name":"D2","ticks":3685,"time":8.375,"velocity":0.7086614173228346},{"duration":0.125,"durationTicks":55,"midi":42,"name":"F#2","ticks":3685,"time":8.375,"velocity":0.7086614173228346},{"duration":0.125,"durationTicks":55,"midi":42,"name":"F#2","ticks":3795,"time":8.625,"velocity":0.7086614173228346},{"duration":0.125,"durationTicks":55,"midi":42,"name":"F#2","ticks":3905,"time":8.875,"velocity":0.7086614173228346},{"duration":0.125,"durationTicks":55,"midi":36,"name":"C2","ticks":3960,"time":9,"velocity":0.7086614173228346},{"duration":0.125,"durationTicks":55,"midi":42,"name":"F#2","ticks":4015,"time":9.125,"velocity":0.7086614173228346},{"duration":0.125,"durationTicks":55,"midi":36,"name":"C2","ticks":4070,"time":9.25,"velocity":0.7086614173228346},{"duration":0.125,"durationTicks":55,"midi":38,"name":"D2","ticks":4125,"time":9.375,"velocity":0.7086614173228346},{"duration":0.125,"durationTicks":55,"midi":42,"name":"F#2","ticks":4125,"time":9.375,"velocity":0.7086614173228346},{"duration":0.125,"durationTicks":55,"midi":36,"name":"C2","ticks":4180,"time":9.5,"velocity":0.7086614173228346},{"duration":0.125,"durationTicks":55,"midi":42,"name":"F#2","ticks":4235,"time":9.625,"velocity":0.7086614173228346},{"duration":0.125,"durationTicks":55,"midi":36,"name":"C2","ticks":4290,"time":9.75,"velocity":0.7086614173228346},{"duration":0.125,"durationTicks":55,"midi":36,"name":"C2","ticks":4345,"time":9.875,"velocity":0.7086614173228346},{"duration":0.125,"durationTicks":55,"midi":42,"name":"F#2","ticks":4345,"time":9.875,"velocity":0.7086614173228346},{"duration":0.125,"durationTicks":55,"midi":42,"name":"F#2","ticks":4455,"time":10.125,"velocity":0.7086614173228346},{"duration":0.125,"durationTicks":55,"midi":36,"name":"C2","ticks":4510,"time":10.25,"velocity":0.7086614173228346},{"duration":0.125,"durationTicks":55,"midi":38,"name":"D2","ticks":4565,"time":10.375,"velocity":0.7086614173228346},{"duration":0.125,"durationTicks":55,"midi":42,"name":"F#2","ticks":4565,"time":10.375,"velocity":0.7086614173228346},{"duration":0.125,"durationTicks":55,"midi":42,"name":"F#2","ticks":4675,"time":10.625,"velocity":0.7086614173228346},{"duration":0.125,"durationTicks":55,"midi":42,"name":"F#2","ticks":4785,"time":10.875,"velocity":0.7086614173228346},{"duration":0.125,"durationTicks":55,"midi":36,"name":"C2","ticks":4840,"time":11,"velocity":0.7086614173228346},{"duration":0.125,"durationTicks":55,"midi":36,"name":"C2","ticks":4895,"time":11.125,"velocity":0.7086614173228346},{"duration":0.125,"durationTicks":55,"midi":42,"name":"F#2","ticks":4895,"time":11.125,"velocity":0.7086614173228346},{"duration":0.125,"durationTicks":55,"midi":36,"name":"C2","ticks":4950,"time":11.25,"velocity":0.7086614173228346},{"duration":0.125,"durationTicks":55,"midi":38,"name":"D2","ticks":5005,"time":11.375,"velocity":0.7086614173228346},{"duration":0.125,"durationTicks":55,"midi":42,"name":"F#2","ticks":5005,"time":11.375,"velocity":0.7086614173228346},{"duration":0.125,"durationTicks":55,"midi":36,"name":"C2","ticks":5060,"time":11.5,"velocity":0.7086614173228346},{"duration":0.125,"durationTicks":55,"midi":36,"name":"C2","ticks":5115,"time":11.625,"velocity":0.7086614173228346},{"duration":0.125,"durationTicks":55,"midi":42,"name":"F#2","ticks":5115,"time":11.625,"velocity":0.7086614173228346},{"duration":0.125,"durationTicks":55,"midi":36,"name":"C2","ticks":5170,"time":11.75,"velocity":0.7086614173228346},{"duration":0.125,"durationTicks":55,"midi":36,"name":"C2","ticks":5225,"time":11.875,"velocity":0.7086614173228346},{"duration":0.125,"durationTicks":55,"midi":49,"name":"C#3","ticks":5225,"time":11.875,"velocity":0.7086614173228346},{"duration":0.125,"durationTicks":55,"midi":42,"name":"F#2","ticks":5335,"time":12.125,"velocity":0.7086614173228346},{"duration":0.125,"durationTicks":55,"midi":38,"name":"D2","ticks":5445,"time":12.375,"velocity":0.7086614173228346},{"duration":0.125,"durationTicks":55,"midi":42,"name":"F#2","ticks":5445,"time":12.375,"velocity":0.7086614173228346},{"duration":0.125,"durationTicks":55,"midi":42,"name":"F#2","ticks":5555,"time":12.625,"velocity":0.7086614173228346},{"duration":0.125,"durationTicks":55,"midi":36,"name":"C2","ticks":5665,"time":12.875,"velocity":0.7086614173228346},{"duration":0.125,"durationTicks":55,"midi":42,"name":"F#2","ticks":5665,"time":12.875,"velocity":0.7086614173228346},{"duration":0.125,"durationTicks":55,"midi":36,"name":"C2","ticks":5775,"time":13.125,"velocity":0.7086614173228346},{"duration":0.125,"durationTicks":55,"midi":42,"name":"F#2","ticks":5775,"time":13.125,"velocity":0.7086614173228346},{"duration":0.125,"durationTicks":55,"midi":36,"name":"C2","ticks":5830,"time":13.25,"velocity":0.7086614173228346},{"duration":0.125,"durationTicks":55,"midi":38,"name":"D2","ticks":5885,"time":13.375,"velocity":0.7086614173228346},{"duration":0.125,"durationTicks":55,"midi":42,"name":"F#2","ticks":5885,"time":13.375,"velocity":0.7086614173228346},{"duration":0.125,"durationTicks":55,"midi":36,"name":"C2","ticks":5940,"time":13.5,"velocity":0.7086614173228346},{"duration":0.125,"durationTicks":55,"midi":42,"name":"F#2","ticks":5995,"time":13.625,"velocity":0.7086614173228346},{"duration":0.125,"durationTicks":55,"midi":36,"name":"C2","ticks":6105,"time":13.875,"velocity":0.7086614173228346},{"duration":0.125,"durationTicks":55,"midi":42,"name":"F#2","ticks":6105,"time":13.875,"velocity":0.7086614173228346},{"duration":0.125,"durationTicks":55,"midi":42,"name":"F#2","ticks":6215,"time":14.125,"velocity":0.7086614173228346},{"duration":0.125,"durationTicks":55,"midi":36,"name":"C2","ticks":6270,"time":14.25,"velocity":0.7086614173228346},{"duration":0.125,"durationTicks":55,"midi":38,"name":"D2","ticks":6325,"time":14.375,"velocity":0.7086614173228346},{"duration":0.125,"durationTicks":55,"midi":42,"name":"F#2","ticks":6325,"time":14.375,"velocity":0.7086614173228346},{"duration":0.125,"durationTicks":55,"midi":36,"name":"C2","ticks":6435,"time":14.625,"velocity":0.7086614173228346},{"duration":0.125,"durationTicks":55,"midi":42,"name":"F#2","ticks":6435,"time":14.625,"velocity":0.7086614173228346},{"duration":0.125,"durationTicks":55,"midi":42,"name":"F#2","ticks":6545,"time":14.875,"velocity":0.7086614173228346},{"duration":0.125,"durationTicks":55,"midi":36,"name":"C2","ticks":6600,"time":15,"velocity":0.7086614173228346},{"duration":0.125,"durationTicks":55,"midi":42,"name":"F#2","ticks":6655,"time":15.125,"velocity":0.7086614173228346},{"duration":0.125,"durationTicks":55,"midi":38,"name":"D2","ticks":6765,"time":15.375,"velocity":0.7086614173228346},{"duration":0.125,"durationTicks":55,"midi":42,"name":"F#2","ticks":6765,"time":15.375,"velocity":0.7086614173228346},{"duration":0.125,"durationTicks":55,"midi":46,"name":"A#2","ticks":6875,"time":15.625,"velocity":0.7086614173228346},{"duration":0.125,"durationTicks":55,"midi":36,"name":"C2","ticks":6930,"time":15.75,"velocity":0.7086614173228346},{"duration":0.125,"durationTicks":55,"midi":42,"name":"F#2","ticks":6930,"time":15.75,"velocity":0.7086614173228346},{"duration":0.125,"durationTicks":55,"midi":42,"name":"F#2","ticks":7040,"time":16,"velocity":0.7086614173228346},{"duration":0.125,"durationTicks":55,"midi":42,"name":"F#2","ticks":7150,"time":16.25,"velocity":0.7086614173228346},{"duration":0.125,"durationTicks":55,"midi":36,"name":"C2","ticks":7205,"time":16.375,"velocity":0.7086614173228346},{"duration":0.125,"durationTicks":55,"midi":42,"name":"F#2","ticks":7260,"time":16.5,"velocity":0.7086614173228346},{"duration":0.125,"durationTicks":55,"midi":38,"name":"D2","ticks":7370,"time":16.75,"velocity":0.7086614173228346},{"duration":0.125,"durationTicks":55,"midi":42,"name":"F#2","ticks":7370,"time":16.75,"velocity":0.7086614173228346},{"duration":0.125,"durationTicks":55,"midi":42,"name":"F#2","ticks":7480,"time":17,"velocity":0.7086614173228346},{"duration":0.125,"durationTicks":55,"midi":36,"name":"C2","ticks":7590,"time":17.25,"velocity":0.7086614173228346},{"duration":0.125,"durationTicks":55,"midi":42,"name":"F#2","ticks":7590,"time":17.25,"velocity":0.7086614173228346},{"duration":0.125,"durationTicks":55,"midi":36,"name":"C2","ticks":7645,"time":17.375,"velocity":0.7086614173228346},{"duration":0.125,"durationTicks":55,"midi":36,"name":"C2","ticks":7700,"time":17.5,"velocity":0.7086614173228346},{"duration":0.125,"durationTicks":55,"midi":42,"name":"F#2","ticks":7700,"time":17.5,"velocity":0.7086614173228346},{"duration":0.125,"durationTicks":55,"midi":42,"name":"F#2","ticks":7810,"time":17.75,"velocity":0.7086614173228346},{"duration":0.125,"durationTicks":55,"midi":36,"name":"C2","ticks":7865,"time":17.875,"velocity":0.7086614173228346},{"duration":0.125,"durationTicks":55,"midi":42,"name":"F#2","ticks":7920,"time":18,"velocity":0.7086614173228346},{"duration":0.125,"durationTicks":55,"midi":36,"name":"C2","ticks":8030,"time":18.25,"velocity":0.7086614173228346},{"duration":0.125,"durationTicks":55,"midi":42,"name":"F#2","ticks":8030,"time":18.25,"velocity":0.7086614173228346},{"duration":0.125,"durationTicks":55,"midi":36,"name":"C2","ticks":8085,"time":18.375,"velocity":0.7086614173228346},{"duration":0.125,"durationTicks":55,"midi":42,"name":"F#2","ticks":8140,"time":18.5,"velocity":0.7086614173228346},{"duration":0.125,"durationTicks":55,"midi":38,"name":"D2","ticks":8250,"time":18.75,"velocity":0.7086614173228346},{"duration":0.125,"durationTicks":55,"midi":42,"name":"F#2","ticks":8250,"time":18.75,"velocity":0.7086614173228346},{"duration":0.125,"durationTicks":55,"midi":38,"name":"D2","ticks":8305,"time":18.875,"velocity":0.7086614173228346},{"duration":0.125,"durationTicks":55,"midi":38,"name":"D2","ticks":8360,"time":19,"velocity":0.7086614173228346},{"duration":0.125,"durationTicks":55,"midi":42,"name":"F#2","ticks":8360,"time":19,"velocity":0.7086614173228346},{"duration":0.125,"durationTicks":55,"midi":38,"name":"D2","ticks":8415,"time":19.125,"velocity":0.7086614173228346},{"duration":0.125,"durationTicks":55,"midi":38,"name":"D2","ticks":8470,"time":19.25,"velocity":0.7086614173228346},{"duration":0.125,"durationTicks":55,"midi":42,"name":"F#2","ticks":8470,"time":19.25,"velocity":0.7086614173228346},{"duration":0.125,"durationTicks":55,"midi":38,"name":"D2","ticks":8525,"time":19.375,"velocity":0.7086614173228346},{"duration":0.125,"durationTicks":55,"midi":38,"name":"D2","ticks":8580,"time":19.5,"velocity":0.7086614173228346},{"duration":0.125,"durationTicks":55,"midi":42,"name":"F#2","ticks":8580,"time":19.5,"velocity":0.7086614173228346},{"duration":0.125,"durationTicks":55,"midi":38,"name":"D2","ticks":8635,"time":19.625,"velocity":0.7086614173228346},{"duration":0.125,"durationTicks":55,"midi":42,"name":"F#2","ticks":8690,"time":19.75,"velocity":0.7086614173228346},{"duration":0.125,"durationTicks":55,"midi":36,"name":"C2","ticks":8745,"time":19.875,"velocity":0.7086614173228346},{"duration":0.125,"durationTicks":55,"midi":42,"name":"F#2","ticks":8800,"time":20,"velocity":0.7086614173228346},{"duration":0.125,"durationTicks":55,"midi":38,"name":"D2","ticks":8910,"time":20.25,"velocity":0.7086614173228346},{"duration":0.125,"durationTicks":55,"midi":42,"name":"F#2","ticks":8910,"time":20.25,"velocity":0.7086614173228346},{"duration":0.125,"durationTicks":55,"midi":36,"name":"C2","ticks":8965,"time":20.375,"velocity":0.7086614173228346},{"duration":0.125,"durationTicks":55,"midi":42,"name":"F#2","ticks":9020,"time":20.5,"velocity":0.7086614173228346},{"duration":0.125,"durationTicks":55,"midi":42,"name":"F#2","ticks":9130,"time":20.75,"velocity":0.7086614173228346},{"duration":0.125,"durationTicks":55,"midi":36,"name":"C2","ticks":9185,"time":20.875,"velocity":0.7086614173228346},{"duration":0.125,"durationTicks":55,"midi":42,"name":"F#2","ticks":9240,"time":21,"velocity":0.7086614173228346},{"duration":0.125,"durationTicks":55,"midi":36,"name":"C2","ticks":9295,"time":21.125,"velocity":0.7086614173228346},{"duration":0.125,"durationTicks":55,"midi":38,"name":"D2","ticks":9350,"time":21.25,"velocity":0.7086614173228346},{"duration":0.125,"durationTicks":55,"midi":42,"name":"F#2","ticks":9350,"time":21.25,"velocity":0.7086614173228346},{"duration":0.125,"durationTicks":55,"midi":42,"name":"F#2","ticks":9460,"time":21.5,"velocity":0.7086614173228346},{"duration":0.125,"durationTicks":55,"midi":36,"name":"C2","ticks":9570,"time":21.75,"velocity":0.7086614173228346},{"duration":0.125,"durationTicks":55,"midi":42,"name":"F#2","ticks":9570,"time":21.75,"velocity":0.7086614173228346},{"duration":0.125,"durationTicks":55,"midi":36,"name":"C2","ticks":9680,"time":22,"velocity":0.7086614173228346},{"duration":0.125,"durationTicks":55,"midi":42,"name":"F#2","ticks":9680,"time":22,"velocity":0.7086614173228346},{"duration":0.125,"durationTicks":55,"midi":46,"name":"A#2","ticks":9790,"time":22.25,"velocity":0.7086614173228346},{"duration":0.125,"durationTicks":55,"midi":36,"name":"C2","ticks":9845,"time":22.375,"velocity":0.7086614173228346},{"duration":0.125,"durationTicks":55,"midi":42,"name":"F#2","ticks":9900,"time":22.5,"velocity":0.7086614173228346},{"duration":0.125,"durationTicks":55,"midi":38,"name":"D2","ticks":10010,"time":22.75,"velocity":0.7086614173228346},{"duration":0.125,"durationTicks":55,"midi":42,"name":"F#2","ticks":10010,"time":22.75,"velocity":0.7086614173228346},{"duration":0.125,"durationTicks":55,"midi":42,"name":"F#2","ticks":10120,"time":23,"velocity":0.7086614173228346},{"duration":0.125,"durationTicks":55,"midi":46,"name":"A#2","ticks":10230,"time":23.25,"velocity":0.7086614173228346},{"duration":0.125,"durationTicks":55,"midi":36,"name":"C2","ticks":10285,"time":23.375,"velocity":0.7086614173228346},{"duration":0.125,"durationTicks":55,"midi":42,"name":"F#2","ticks":10340,"time":23.5,"velocity":0.7086614173228346},{"duration":0.125,"durationTicks":55,"midi":36,"name":"C2","ticks":10395,"time":23.625,"velocity":0.7086614173228346},{"duration":0.125,"durationTicks":55,"midi":36,"name":"C2","ticks":10505,"time":23.875,"velocity":0.7086614173228346},{"duration":0.125,"durationTicks":55,"midi":42,"name":"F#2","ticks":10505,"time":23.875,"velocity":0.7086614173228346},{"duration":0.125,"durationTicks":55,"midi":42,"name":"F#2","ticks":10615,"time":24.125,"velocity":0.7086614173228346},{"duration":0.125,"durationTicks":55,"midi":36,"name":"C2","ticks":10725,"time":24.375,"velocity":0.7086614173228346},{"duration":0.125,"durationTicks":55,"midi":42,"name":"F#2","ticks":10725,"time":24.375,"velocity":0.7086614173228346},{"duration":0.125,"durationTicks":55,"midi":42,"name":"F#2","ticks":10835,"time":24.625,"velocity":0.7086614173228346},{"duration":0.125,"durationTicks":55,"midi":38,"name":"D2","ticks":10945,"time":24.875,"velocity":0.7086614173228346},{"duration":0.125,"durationTicks":55,"midi":42,"name":"F#2","ticks":10945,"time":24.875,"velocity":0.7086614173228346},{"duration":0.125,"durationTicks":55,"midi":42,"name":"F#2","ticks":11055,"time":25.125,"velocity":0.7086614173228346},{"duration":0.125,"durationTicks":55,"midi":36,"name":"C2","ticks":11165,"time":25.375,"velocity":0.7086614173228346},{"duration":0.125,"durationTicks":55,"midi":42,"name":"F#2","ticks":11165,"time":25.375,"velocity":0.7086614173228346},{"duration":0.125,"durationTicks":55,"midi":42,"name":"F#2","ticks":11275,"time":25.625,"velocity":0.7086614173228346},{"duration":0.125,"durationTicks":55,"midi":36,"name":"C2","ticks":11385,"time":25.875,"velocity":0.7086614173228346},{"duration":0.125,"durationTicks":55,"midi":42,"name":"F#2","ticks":11385,"time":25.875,"velocity":0.7086614173228346},{"duration":0.125,"durationTicks":55,"midi":36,"name":"C2","ticks":11550,"time":26.25,"velocity":0.7086614173228346},{"duration":0.125,"durationTicks":55,"midi":42,"name":"F#2","ticks":11550,"time":26.25,"velocity":0.7086614173228346},{"duration":0.125,"durationTicks":55,"midi":36,"name":"C2","ticks":11605,"time":26.375,"velocity":0.7086614173228346},{"duration":0.125,"durationTicks":55,"midi":46,"name":"A#2","ticks":11605,"time":26.375,"velocity":0.7086614173228346},{"duration":0.125,"durationTicks":55,"midi":42,"name":"F#2","ticks":11770,"time":26.75,"velocity":0.7086614173228346},{"duration":0.125,"durationTicks":55,"midi":38,"name":"D2","ticks":11825,"time":26.875,"velocity":0.7086614173228346},{"duration":0.125,"durationTicks":55,"midi":42,"name":"F#2","ticks":11825,"time":26.875,"velocity":0.7086614173228346},{"duration":0.125,"durationTicks":55,"midi":38,"name":"D2","ticks":11990,"time":27.25,"velocity":0.7086614173228346},{"duration":0.125,"durationTicks":55,"midi":42,"name":"F#2","ticks":11990,"time":27.25,"velocity":0.7086614173228346},{"duration":0.125,"durationTicks":55,"midi":38,"name":"D2","ticks":12045,"time":27.375,"velocity":0.7086614173228346},{"duration":0.125,"durationTicks":55,"midi":38,"name":"D2","ticks":12100,"time":27.5,"velocity":0.7086614173228346},{"duration":0.125,"durationTicks":55,"midi":38,"name":"D2","ticks":12155,"time":27.625,"velocity":0.7086614173228346},{"duration":0.125,"durationTicks":55,"midi":36,"name":"C2","ticks":12265,"time":27.875,"velocity":0.7086614173228346},{"duration":0.125,"durationTicks":55,"midi":42,"name":"F#2","ticks":12265,"time":27.875,"velocity":0.7086614173228346},{"duration":0.125,"durationTicks":55,"midi":42,"name":"F#2","ticks":12375,"time":28.125,"velocity":0.7086614173228346},{"duration":0.125,"durationTicks":55,"midi":36,"name":"C2","ticks":12430,"time":28.25,"velocity":0.7086614173228346},{"duration":0.125,"durationTicks":55,"midi":36,"name":"C2","ticks":12485,"time":28.375,"velocity":0.7086614173228346},{"duration":0.125,"durationTicks":55,"midi":42,"name":"F#2","ticks":12485,"time":28.375,"velocity":0.7086614173228346},{"duration":0.125,"durationTicks":55,"midi":42,"name":"F#2","ticks":12595,"time":28.625,"velocity":0.7086614173228346},{"duration":0.125,"durationTicks":55,"midi":38,"name":"D2","ticks":12705,"time":28.875,"velocity":0.7086614173228346},{"duration":0.125,"durationTicks":55,"midi":42,"name":"F#2","ticks":12705,"time":28.875,"velocity":0.7086614173228346},{"duration":0.125,"durationTicks":55,"midi":42,"name":"F#2","ticks":12815,"time":29.125,"velocity":0.7086614173228346},{"duration":0.125,"durationTicks":55,"midi":36,"name":"C2","ticks":12870,"time":29.25,"velocity":0.7086614173228346},{"duration":0.125,"durationTicks":55,"midi":36,"name":"C2","ticks":12925,"time":29.375,"velocity":0.7086614173228346},{"duration":0.125,"durationTicks":55,"midi":42,"name":"F#2","ticks":12925,"time":29.375,"velocity":0.7086614173228346},{"duration":0.125,"durationTicks":55,"midi":36,"name":"C2","ticks":13035,"time":29.625,"velocity":0.7086614173228346},{"duration":0.125,"durationTicks":55,"midi":42,"name":"F#2","ticks":13035,"time":29.625,"velocity":0.7086614173228346},{"duration":0.125,"durationTicks":55,"midi":36,"name":"C2","ticks":13145,"time":29.875,"velocity":0.7086614173228346},{"duration":0.125,"durationTicks":55,"midi":42,"name":"F#2","ticks":13145,"time":29.875,"velocity":0.7086614173228346},{"duration":0.125,"durationTicks":55,"midi":36,"name":"C2","ticks":13310,"time":30.25,"velocity":0.7086614173228346},{"duration":0.125,"durationTicks":55,"midi":42,"name":"F#2","ticks":13310,"time":30.25,"velocity":0.7086614173228346},{"duration":0.125,"durationTicks":55,"midi":36,"name":"C2","ticks":13420,"time":30.5,"velocity":0.7086614173228346},{"duration":0.125,"durationTicks":55,"midi":42,"name":"F#2","ticks":13420,"time":30.5,"velocity":0.7086614173228346},{"duration":0.125,"durationTicks":55,"midi":42,"name":"F#2","ticks":13530,"time":30.75,"velocity":0.7086614173228346},{"duration":0.125,"durationTicks":55,"midi":36,"name":"C2","ticks":13640,"time":31,"velocity":0.7086614173228346},{"duration":0.125,"durationTicks":55,"midi":42,"name":"F#2","ticks":13640,"time":31,"velocity":0.7086614173228346},{"duration":0.125,"durationTicks":55,"midi":42,"name":"F#2","ticks":13750,"time":31.25,"velocity":0.7086614173228346},{"duration":0.125,"durationTicks":55,"midi":38,"name":"D2","ticks":13860,"time":31.5,"velocity":0.7086614173228346},{"duration":0.125,"durationTicks":55,"midi":42,"name":"F#2","ticks":13860,"time":31.5,"velocity":0.7086614173228346},{"duration":0.125,"durationTicks":55,"midi":42,"name":"F#2","ticks":13970,"time":31.75,"velocity":0.7086614173228346},{"duration":0.125,"durationTicks":55,"midi":42,"name":"F#2","ticks":14080,"time":32,"velocity":0.7086614173228346},{"duration":0.125,"durationTicks":55,"midi":42,"name":"F#2","ticks":14190,"time":32.25,"velocity":0.7086614173228346},{"duration":0.125,"durationTicks":55,"midi":36,"name":"C2","ticks":14300,"time":32.5,"velocity":0.7086614173228346},{"duration":0.125,"durationTicks":55,"midi":42,"name":"F#2","ticks":14300,"time":32.5,"velocity":0.7086614173228346},{"duration":0.125,"durationTicks":55,"midi":46,"name":"A#2","ticks":14410,"time":32.75,"velocity":0.7086614173228346},{"duration":0.125,"durationTicks":55,"midi":36,"name":"C2","ticks":14520,"time":33,"velocity":0.7086614173228346},{"duration":0.125,"durationTicks":55,"midi":42,"name":"F#2","ticks":14520,"time":33,"velocity":0.7086614173228346},{"duration":0.125,"durationTicks":55,"midi":42,"name":"F#2","ticks":14630,"time":33.25,"velocity":0.7086614173228346},{"duration":0.125,"durationTicks":55,"midi":38,"name":"D2","ticks":14740,"time":33.5,"velocity":0.7086614173228346},{"duration":0.125,"durationTicks":55,"midi":46,"name":"A#2","ticks":14740,"time":33.5,"velocity":0.7086614173228346},{"duration":0.125,"durationTicks":55,"midi":42,"name":"F#2","ticks":14850,"time":33.75,"velocity":0.7086614173228346},{"duration":0.125,"durationTicks":55,"midi":36,"name":"C2","ticks":14960,"time":34,"velocity":0.7086614173228346},{"duration":0.125,"durationTicks":55,"midi":46,"name":"A#2","ticks":14960,"time":34,"velocity":0.7086614173228346},{"duration":0.125,"durationTicks":55,"midi":42,"name":"F#2","ticks":15070,"time":34.25,"velocity":0.7086614173228346},{"duration":0.125,"durationTicks":55,"midi":36,"name":"C2","ticks":15180,"time":34.5,"velocity":0.7086614173228346},{"duration":0.125,"durationTicks":55,"midi":42,"name":"F#2","ticks":15180,"time":34.5,"velocity":0.7086614173228346},{"duration":0.125,"durationTicks":55,"midi":42,"name":"F#2","ticks":15290,"time":34.75,"velocity":0.7086614173228346},{"duration":0.125,"durationTicks":55,"midi":36,"name":"C2","ticks":15345,"time":34.875,"velocity":0.7086614173228346},{"duration":0.125,"durationTicks":55,"midi":36,"name":"C2","ticks":15400,"time":35,"velocity":0.7086614173228346},{"duration":0.125,"durationTicks":55,"midi":42,"name":"F#2","ticks":15400,"time":35,"velocity":0.7086614173228346},{"duration":0.125,"durationTicks":55,"midi":42,"name":"F#2","ticks":15510,"time":35.25,"velocity":0.7086614173228346},{"duration":0.125,"durationTicks":55,"midi":38,"name":"D2","ticks":15620,"time":35.5,"velocity":0.7086614173228346},{"duration":0.125,"durationTicks":55,"midi":42,"name":"F#2","ticks":15620,"time":35.5,"velocity":0.7086614173228346},{"duration":0.125,"durationTicks":55,"midi":42,"name":"F#2","ticks":15730,"time":35.75,"velocity":0.7086614173228346},{"duration":0.125,"durationTicks":55,"midi":36,"name":"C2","ticks":15840,"time":36,"velocity":0.7086614173228346},{"duration":0.125,"durationTicks":55,"midi":46,"name":"A#2","ticks":15840,"time":36,"velocity":0.7086614173228346},{"duration":0.125,"durationTicks":55,"midi":42,"name":"F#2","ticks":15950,"time":36.25,"velocity":0.7086614173228346},{"duration":0.125,"durationTicks":55,"midi":36,"name":"C2","ticks":16060,"time":36.5,"velocity":0.7086614173228346},{"duration":0.125,"durationTicks":55,"midi":42,"name":"F#2","ticks":16060,"time":36.5,"velocity":0.7086614173228346},{"duration":0.125,"durationTicks":55,"midi":51,"name":"D#3","ticks":16060,"time":36.5,"velocity":0.7086614173228346},{"duration":0.125,"durationTicks":55,"midi":36,"name":"C2","ticks":16170,"time":36.75,"velocity":0.7086614173228346},{"duration":0.125,"durationTicks":55,"midi":42,"name":"F#2","ticks":16170,"time":36.75,"velocity":0.7086614173228346},{"duration":0.125,"durationTicks":55,"midi":36,"name":"C2","ticks":16390,"time":37.25,"velocity":0.7086614173228346},{"duration":0.125,"durationTicks":55,"midi":42,"name":"F#2","ticks":16390,"time":37.25,"velocity":0.7086614173228346},{"duration":0.125,"durationTicks":55,"midi":42,"name":"F#2","ticks":16610,"time":37.75,"velocity":0.7086614173228346},{"duration":0.125,"durationTicks":55,"midi":42,"name":"F#2","ticks":16830,"time":38.25,"velocity":0.7086614173228346},{"duration":0.125,"durationTicks":55,"midi":36,"name":"C2","ticks":17050,"time":38.75,"velocity":0.7086614173228346},{"duration":0.125,"durationTicks":55,"midi":42,"name":"F#2","ticks":17050,"time":38.75,"velocity":0.7086614173228346},{"duration":0.125,"durationTicks":55,"midi":51,"name":"D#3","ticks":17050,"time":38.75,"velocity":0.7086614173228346},{"duration":0.125,"durationTicks":55,"midi":36,"name":"C2","ticks":17270,"time":39.25,"velocity":0.7086614173228346},{"duration":0.125,"durationTicks":55,"midi":46,"name":"A#2","ticks":17270,"time":39.25,"velocity":0.7086614173228346},{"duration":0.125,"durationTicks":55,"midi":38,"name":"D2","ticks":17490,"time":39.75,"velocity":0.7086614173228346},{"duration":0.125,"durationTicks":55,"midi":42,"name":"F#2","ticks":17490,"time":39.75,"velocity":0.7086614173228346},{"duration":0.125,"durationTicks":55,"midi":51,"name":"D#3","ticks":17490,"time":39.75,"velocity":0.7086614173228346},{"duration":0.125,"durationTicks":55,"midi":42,"name":"F#2","ticks":17710,"time":40.25,"velocity":0.7086614173228346},{"duration":0.125,"durationTicks":55,"midi":51,"name":"D#3","ticks":17710,"time":40.25,"velocity":0.7086614173228346},{"duration":0.125,"durationTicks":55,"midi":36,"name":"C2","ticks":17930,"time":40.75,"velocity":0.7086614173228346},{"duration":0.125,"durationTicks":55,"midi":42,"name":"F#2","ticks":17930,"time":40.75,"velocity":0.7086614173228346},{"duration":0.125,"durationTicks":55,"midi":42,"name":"F#2","ticks":18040,"time":41,"velocity":0.7086614173228346},{"duration":0.125,"durationTicks":55,"midi":36,"name":"C2","ticks":18150,"time":41.25,"velocity":0.7086614173228346},{"duration":0.125,"durationTicks":55,"midi":42,"name":"F#2","ticks":18150,"time":41.25,"velocity":0.7086614173228346},{"duration":0.125,"durationTicks":55,"midi":42,"name":"F#2","ticks":18260,"time":41.5,"velocity":0.7086614173228346},{"duration":0.125,"durationTicks":55,"midi":38,"name":"D2","ticks":18370,"time":41.75,"velocity":0.7086614173228346},{"duration":0.125,"durationTicks":55,"midi":42,"name":"F#2","ticks":18370,"time":41.75,"velocity":0.7086614173228346},{"duration":0.125,"durationTicks":55,"midi":42,"name":"F#2","ticks":18480,"time":42,"velocity":0.7086614173228346},{"duration":0.125,"durationTicks":55,"midi":36,"name":"C2","ticks":18590,"time":42.25,"velocity":0.7086614173228346},{"duration":0.125,"durationTicks":55,"midi":46,"name":"A#2","ticks":18590,"time":42.25,"velocity":0.7086614173228346},{"duration":0.125,"durationTicks":55,"midi":36,"name":"C2","ticks":18700,"time":42.5,"velocity":0.7086614173228346},{"duration":0.125,"durationTicks":55,"midi":46,"name":"A#2","ticks":18700,"time":42.5,"velocity":0.7086614173228346},{"duration":0.125,"durationTicks":55,"midi":36,"name":"C2","ticks":18810,"time":42.75,"velocity":0.7086614173228346},{"duration":0.125,"durationTicks":55,"midi":42,"name":"F#2","ticks":18810,"time":42.75,"velocity":0.7086614173228346},{"duration":0.125,"durationTicks":55,"midi":51,"name":"D#3","ticks":18810,"time":42.75,"velocity":0.7086614173228346},{"duration":0.125,"durationTicks":55,"midi":36,"name":"C2","ticks":18920,"time":43,"velocity":0.7086614173228346},{"duration":0.125,"durationTicks":55,"midi":42,"name":"F#2","ticks":18920,"time":43,"velocity":0.7086614173228346},{"duration":0.125,"durationTicks":55,"midi":36,"name":"C2","ticks":19140,"time":43.5,"velocity":0.7086614173228346},{"duration":0.125,"durationTicks":55,"midi":42,"name":"F#2","ticks":19140,"time":43.5,"velocity":0.7086614173228346},{"duration":0.125,"durationTicks":55,"midi":42,"name":"F#2","ticks":19360,"time":44,"velocity":0.7086614173228346},{"duration":0.125,"durationTicks":55,"midi":42,"name":"F#2","ticks":19580,"time":44.5,"velocity":0.7086614173228346},{"duration":0.125,"durationTicks":55,"midi":36,"name":"C2","ticks":19800,"time":45,"velocity":0.7086614173228346},{"duration":0.125,"durationTicks":55,"midi":42,"name":"F#2","ticks":19800,"time":45,"velocity":0.7086614173228346},{"duration":0.125,"durationTicks":55,"midi":51,"name":"D#3","ticks":19800,"time":45,"velocity":0.7086614173228346},{"duration":0.125,"durationTicks":55,"midi":36,"name":"C2","ticks":20020,"time":45.5,"velocity":0.7086614173228346},{"duration":0.125,"durationTicks":55,"midi":46,"name":"A#2","ticks":20020,"time":45.5,"velocity":0.7086614173228346},{"duration":0.125,"durationTicks":55,"midi":38,"name":"D2","ticks":20240,"time":46,"velocity":0.7086614173228346},{"duration":0.125,"durationTicks":55,"midi":42,"name":"F#2","ticks":20240,"time":46,"velocity":0.7086614173228346},{"duration":0.125,"durationTicks":55,"midi":51,"name":"D#3","ticks":20240,"time":46,"velocity":0.7086614173228346},{"duration":0.125,"durationTicks":55,"midi":42,"name":"F#2","ticks":20460,"time":46.5,"velocity":0.7086614173228346},{"duration":0.125,"durationTicks":55,"midi":51,"name":"D#3","ticks":20460,"time":46.5,"velocity":0.7086614173228346},{"duration":0.125,"durationTicks":55,"midi":36,"name":"C2","ticks":20680,"time":47,"velocity":0.7086614173228346},{"duration":0.125,"durationTicks":55,"midi":38,"name":"D2","ticks":20680,"time":47,"velocity":0.7086614173228346},{"duration":0.125,"durationTicks":55,"midi":42,"name":"F#2","ticks":20680,"time":47,"velocity":0.7086614173228346},{"duration":0.125,"durationTicks":55,"midi":42,"name":"F#2","ticks":20790,"time":47.25,"velocity":0.7086614173228346},{"duration":0.125,"durationTicks":55,"midi":36,"name":"C2","ticks":20900,"time":47.5,"velocity":0.7086614173228346},{"duration":0.125,"durationTicks":55,"midi":42,"name":"F#2","ticks":20900,"time":47.5,"velocity":0.7086614173228346},{"duration":0.125,"durationTicks":55,"midi":42,"name":"F#2","ticks":21010,"time":47.75,"velocity":0.7086614173228346},{"duration":0.125,"durationTicks":55,"midi":36,"name":"C2","ticks":21120,"time":48,"velocity":0.7086614173228346},{"duration":0.125,"durationTicks":55,"midi":38,"name":"D2","ticks":21120,"time":48,"velocity":0.7086614173228346},{"duration":0.125,"durationTicks":55,"midi":42,"name":"F#2","ticks":21120,"time":48,"velocity":0.7086614173228346},{"duration":0.125,"durationTicks":55,"midi":42,"name":"F#2","ticks":21230,"time":48.25,"velocity":0.7086614173228346},{"duration":0.125,"durationTicks":55,"midi":36,"name":"C2","ticks":21340,"time":48.5,"velocity":0.7086614173228346},{"duration":0.125,"durationTicks":55,"midi":42,"name":"F#2","ticks":21340,"time":48.5,"velocity":0.7086614173228346},{"duration":0.125,"durationTicks":55,"midi":42,"name":"F#2","ticks":21450,"time":48.75,"velocity":0.7086614173228346},{"duration":0.125,"durationTicks":55,"midi":36,"name":"C2","ticks":21560,"time":49,"velocity":0.7086614173228346},{"duration":0.125,"durationTicks":55,"midi":42,"name":"F#2","ticks":21560,"time":49,"velocity":0.7086614173228346},{"duration":0.125,"durationTicks":55,"midi":51,"name":"D#3","ticks":21560,"time":49,"velocity":0.7086614173228346},{"duration":0.125,"durationTicks":55,"midi":36,"name":"C2","ticks":21670,"time":49.25,"velocity":0.7086614173228346},{"duration":0.125,"durationTicks":55,"midi":42,"name":"F#2","ticks":21670,"time":49.25,"velocity":0.7086614173228346},{"duration":0.125,"durationTicks":55,"midi":42,"name":"F#2","ticks":21890,"time":49.75,"velocity":0.7086614173228346},{"duration":0.125,"durationTicks":55,"midi":42,"name":"F#2","ticks":22110,"time":50.25,"velocity":0.7086614173228346},{"duration":0.125,"durationTicks":55,"midi":42,"name":"F#2","ticks":22330,"time":50.75,"velocity":0.7086614173228346},{"duration":0.125,"durationTicks":55,"midi":36,"name":"C2","ticks":22550,"time":51.25,"velocity":0.7086614173228346},{"duration":0.125,"durationTicks":55,"midi":42,"name":"F#2","ticks":22550,"time":51.25,"velocity":0.7086614173228346},{"duration":0.125,"durationTicks":55,"midi":51,"name":"D#3","ticks":22550,"time":51.25,"velocity":0.7086614173228346},{"duration":0.125,"durationTicks":55,"midi":36,"name":"C2","ticks":22770,"time":51.75,"velocity":0.7086614173228346},{"duration":0.125,"durationTicks":55,"midi":46,"name":"A#2","ticks":22770,"time":51.75,"velocity":0.7086614173228346},{"duration":0.125,"durationTicks":55,"midi":38,"name":"D2","ticks":22990,"time":52.25,"velocity":0.7086614173228346},{"duration":0.125,"durationTicks":55,"midi":42,"name":"F#2","ticks":22990,"time":52.25,"velocity":0.7086614173228346},{"duration":0.125,"durationTicks":55,"midi":46,"name":"A#2","ticks":22990,"time":52.25,"velocity":0.7086614173228346},{"duration":0.125,"durationTicks":55,"midi":51,"name":"D#3","ticks":22990,"time":52.25,"velocity":0.7086614173228346},{"duration":0.125,"durationTicks":55,"midi":42,"name":"F#2","ticks":23210,"time":52.75,"velocity":0.7086614173228346},{"duration":0.125,"durationTicks":55,"midi":51,"name":"D#3","ticks":23210,"time":52.75,"velocity":0.7086614173228346},{"duration":0.125,"durationTicks":55,"midi":36,"name":"C2","ticks":23430,"time":53.25,"velocity":0.7086614173228346},{"duration":0.125,"durationTicks":55,"midi":38,"name":"D2","ticks":23430,"time":53.25,"velocity":0.7086614173228346},{"duration":0.125,"durationTicks":55,"midi":42,"name":"F#2","ticks":23430,"time":53.25,"velocity":0.7086614173228346},{"duration":0.125,"durationTicks":55,"midi":42,"name":"F#2","ticks":23540,"time":53.5,"velocity":0.7086614173228346},{"duration":0.125,"durationTicks":55,"midi":36,"name":"C2","ticks":23650,"time":53.75,"velocity":0.7086614173228346},{"duration":0.125,"durationTicks":55,"midi":42,"name":"F#2","ticks":23650,"time":53.75,"velocity":0.7086614173228346},{"duration":0.125,"durationTicks":55,"midi":42,"name":"F#2","ticks":23760,"time":54,"velocity":0.7086614173228346},{"duration":0.125,"durationTicks":55,"midi":36,"name":"C2","ticks":23870,"time":54.25,"velocity":0.7086614173228346},{"duration":0.125,"durationTicks":55,"midi":38,"name":"D2","ticks":23870,"time":54.25,"velocity":0.7086614173228346},{"duration":0.125,"durationTicks":55,"midi":42,"name":"F#2","ticks":23870,"time":54.25,"velocity":0.7086614173228346},{"duration":0.125,"durationTicks":55,"midi":42,"name":"F#2","ticks":23980,"time":54.5,"velocity":0.7086614173228346},{"duration":0.125,"durationTicks":55,"midi":36,"name":"C2","ticks":24090,"time":54.75,"velocity":0.7086614173228346},{"duration":0.125,"durationTicks":55,"midi":42,"name":"F#2","ticks":24090,"time":54.75,"velocity":0.7086614173228346},{"duration":0.125,"durationTicks":55,"midi":42,"name":"F#2","ticks":24200,"time":55,"velocity":0.7086614173228346},{"duration":0.125,"durationTicks":55,"midi":36,"name":"C2","ticks":24310,"time":55.25,"velocity":0.7086614173228346},{"duration":0.125,"durationTicks":55,"midi":42,"name":"F#2","ticks":24310,"time":55.25,"velocity":0.7086614173228346},{"duration":0.125,"durationTicks":55,"midi":51,"name":"D#3","ticks":24310,"time":55.25,"velocity":0.7086614173228346},{"duration":0.125,"durationTicks":55,"midi":36,"name":"C2","ticks":24420,"time":55.5,"velocity":0.7086614173228346},{"duration":0.125,"durationTicks":55,"midi":42,"name":"F#2","ticks":24420,"time":55.5,"velocity":0.7086614173228346},{"duration":0.125,"durationTicks":55,"midi":42,"name":"F#2","ticks":24640,"time":56,"velocity":0.7086614173228346},{"duration":0.125,"durationTicks":55,"midi":42,"name":"F#2","ticks":24860,"time":56.5,"velocity":0.7086614173228346},{"duration":0.125,"durationTicks":55,"midi":42,"name":"F#2","ticks":25080,"time":57,"velocity":0.7086614173228346},{"duration":0.125,"durationTicks":55,"midi":36,"name":"C2","ticks":25300,"time":57.5,"velocity":0.7086614173228346},{"duration":0.125,"durationTicks":55,"midi":42,"name":"F#2","ticks":25300,"time":57.5,"velocity":0.7086614173228346},{"duration":0.125,"durationTicks":55,"midi":51,"name":"D#3","ticks":25300,"time":57.5,"velocity":0.7086614173228346},{"duration":0.125,"durationTicks":55,"midi":36,"name":"C2","ticks":25520,"time":58,"velocity":0.7086614173228346},{"duration":0.125,"durationTicks":55,"midi":42,"name":"F#2","ticks":25520,"time":58,"velocity":0.7086614173228346},{"duration":0.125,"durationTicks":55,"midi":38,"name":"D2","ticks":25740,"time":58.5,"velocity":0.7086614173228346},{"duration":0.125,"durationTicks":55,"midi":42,"name":"F#2","ticks":25740,"time":58.5,"velocity":0.7086614173228346},{"duration":0.125,"durationTicks":55,"midi":51,"name":"D#3","ticks":25740,"time":58.5,"velocity":0.7086614173228346},{"duration":0.125,"durationTicks":55,"midi":42,"name":"F#2","ticks":25960,"time":59,"velocity":0.7086614173228346},{"duration":0.125,"durationTicks":55,"midi":51,"name":"D#3","ticks":25960,"time":59,"velocity":0.7086614173228346},{"duration":0.125,"durationTicks":55,"midi":36,"name":"C2","ticks":26180,"time":59.5,"velocity":0.7086614173228346},{"duration":0.125,"durationTicks":55,"midi":38,"name":"D2","ticks":26180,"time":59.5,"velocity":0.7086614173228346},{"duration":0.125,"durationTicks":55,"midi":42,"name":"F#2","ticks":26180,"time":59.5,"velocity":0.7086614173228346},{"duration":0.125,"durationTicks":55,"midi":36,"name":"C2","ticks":26400,"time":60,"velocity":0.7086614173228346},{"duration":0.125,"durationTicks":55,"midi":42,"name":"F#2","ticks":26400,"time":60,"velocity":0.7086614173228346},{"duration":0.125,"durationTicks":55,"midi":36,"name":"C2","ticks":26620,"time":60.5,"velocity":0.7086614173228346},{"duration":0.125,"durationTicks":55,"midi":42,"name":"F#2","ticks":26620,"time":60.5,"velocity":0.7086614173228346},{"duration":0.125,"durationTicks":55,"midi":36,"name":"C2","ticks":26840,"time":61,"velocity":0.7086614173228346},{"duration":0.125,"durationTicks":55,"midi":42,"name":"F#2","ticks":26840,"time":61,"velocity":0.7086614173228346},{"duration":0.125,"durationTicks":55,"midi":36,"name":"C2","ticks":27060,"time":61.5,"velocity":0.7086614173228346},{"duration":0.125,"durationTicks":55,"midi":38,"name":"D2","ticks":27060,"time":61.5,"velocity":0.7086614173228346},{"duration":0.125,"durationTicks":55,"midi":42,"name":"F#2","ticks":27060,"time":61.5,"velocity":0.7086614173228346},{"duration":0.125,"durationTicks":55,"midi":51,"name":"D#3","ticks":27060,"time":61.5,"velocity":0.7086614173228346},{"duration":0.125,"durationTicks":55,"midi":36,"name":"C2","ticks":27170,"time":61.75,"velocity":0.7086614173228346},{"duration":0.125,"durationTicks":55,"midi":42,"name":"F#2","ticks":27170,"time":61.75,"velocity":0.7086614173228346},{"duration":0.125,"durationTicks":55,"midi":42,"name":"F#2","ticks":27390,"time":62.25,"velocity":0.7086614173228346},{"duration":0.125,"durationTicks":55,"midi":42,"name":"F#2","ticks":27610,"time":62.75,"velocity":0.7086614173228346},{"duration":0.125,"durationTicks":55,"midi":42,"name":"F#2","ticks":27830,"time":63.25,"velocity":0.7086614173228346},{"duration":0.125,"durationTicks":55,"midi":36,"name":"C2","ticks":28050,"time":63.75,"velocity":0.7086614173228346},{"duration":0.125,"durationTicks":55,"midi":42,"name":"F#2","ticks":28050,"time":63.75,"velocity":0.7086614173228346},{"duration":0.125,"durationTicks":55,"midi":51,"name":"D#3","ticks":28050,"time":63.75,"velocity":0.7086614173228346},{"duration":0.125,"durationTicks":55,"midi":36,"name":"C2","ticks":28270,"time":64.25,"velocity":0.7086614173228346},{"duration":0.125,"durationTicks":55,"midi":42,"name":"F#2","ticks":28270,"time":64.25,"velocity":0.7086614173228346},{"duration":0.125,"durationTicks":55,"midi":42,"name":"F#2","ticks":28490,"time":64.75,"velocity":0.7086614173228346},{"duration":0.125,"durationTicks":55,"midi":51,"name":"D#3","ticks":28490,"time":64.75,"velocity":0.7086614173228346},{"duration":0.125,"durationTicks":55,"midi":42,"name":"F#2","ticks":28710,"time":65.25,"velocity":0.7086614173228346},{"duration":0.125,"durationTicks":55,"midi":51,"name":"D#3","ticks":28710,"time":65.25,"velocity":0.7086614173228346},{"duration":0.125,"durationTicks":55,"midi":36,"name":"C2","ticks":28930,"time":65.75,"velocity":0.7086614173228346},{"duration":0.125,"durationTicks":55,"midi":38,"name":"D2","ticks":28930,"time":65.75,"velocity":0.7086614173228346},{"duration":0.125,"durationTicks":55,"midi":42,"name":"F#2","ticks":28930,"time":65.75,"velocity":0.7086614173228346},{"duration":0.125,"durationTicks":55,"midi":36,"name":"C2","ticks":29150,"time":66.25,"velocity":0.7086614173228346},{"duration":0.125,"durationTicks":55,"midi":42,"name":"F#2","ticks":29150,"time":66.25,"velocity":0.7086614173228346},{"duration":0.125,"durationTicks":55,"midi":36,"name":"C2","ticks":29370,"time":66.75,"velocity":0.7086614173228346},{"duration":0.125,"durationTicks":55,"midi":42,"name":"F#2","ticks":29370,"time":66.75,"velocity":0.7086614173228346},{"duration":0.125,"durationTicks":55,"midi":36,"name":"C2","ticks":29590,"time":67.25,"velocity":0.7086614173228346},{"duration":0.125,"durationTicks":55,"midi":42,"name":"F#2","ticks":29590,"time":67.25,"velocity":0.7086614173228346},{"duration":0.125,"durationTicks":55,"midi":36,"name":"C2","ticks":29810,"time":67.75,"velocity":0.7086614173228346},{"duration":0.125,"durationTicks":55,"midi":38,"name":"D2","ticks":29810,"time":67.75,"velocity":0.7086614173228346},{"duration":0.125,"durationTicks":55,"midi":42,"name":"F#2","ticks":29810,"time":67.75,"velocity":0.7086614173228346},{"duration":0.125,"durationTicks":55,"midi":51,"name":"D#3","ticks":29810,"time":67.75,"velocity":0.7086614173228346},{"duration":0.125,"durationTicks":55,"midi":36,"name":"C2","ticks":29920,"time":68,"velocity":0.7086614173228346},{"duration":0.125,"durationTicks":55,"midi":42,"name":"F#2","ticks":29920,"time":68,"velocity":0.7086614173228346},{"duration":0.125,"durationTicks":55,"midi":42,"name":"F#2","ticks":30140,"time":68.5,"velocity":0.7086614173228346},{"duration":0.125,"durationTicks":55,"midi":42,"name":"F#2","ticks":30360,"time":69,"velocity":0.7086614173228346},{"duration":0.125,"durationTicks":55,"midi":42,"name":"F#2","ticks":30580,"time":69.5,"velocity":0.7086614173228346},{"duration":0.125,"durationTicks":55,"midi":36,"name":"C2","ticks":30800,"time":70,"velocity":0.7086614173228346},{"duration":0.125,"durationTicks":55,"midi":42,"name":"F#2","ticks":30800,"time":70,"velocity":0.7086614173228346},{"duration":0.125,"durationTicks":55,"midi":51,"name":"D#3","ticks":30800,"time":70,"velocity":0.7086614173228346},{"duration":0.125,"durationTicks":55,"midi":36,"name":"C2","ticks":31020,"time":70.5,"velocity":0.7086614173228346},{"duration":0.125,"durationTicks":55,"midi":42,"name":"F#2","ticks":31020,"time":70.5,"velocity":0.7086614173228346},{"duration":0.125,"durationTicks":55,"midi":42,"name":"F#2","ticks":31240,"time":71,"velocity":0.7086614173228346},{"duration":0.125,"durationTicks":55,"midi":51,"name":"D#3","ticks":31240,"time":71,"velocity":0.7086614173228346},{"duration":0.125,"durationTicks":55,"midi":42,"name":"F#2","ticks":31460,"time":71.5,"velocity":0.7086614173228346},{"duration":0.125,"durationTicks":55,"midi":51,"name":"D#3","ticks":31460,"time":71.5,"velocity":0.7086614173228346},{"duration":0.125,"durationTicks":55,"midi":36,"name":"C2","ticks":31680,"time":72,"velocity":0.7086614173228346},{"duration":0.125,"durationTicks":55,"midi":38,"name":"D2","ticks":31680,"time":72,"velocity":0.7086614173228346},{"duration":0.125,"durationTicks":55,"midi":42,"name":"F#2","ticks":31680,"time":72,"velocity":0.7086614173228346},{"duration":0.125,"durationTicks":55,"midi":36,"name":"C2","ticks":31900,"time":72.5,"velocity":0.7086614173228346},{"duration":0.125,"durationTicks":55,"midi":42,"name":"F#2","ticks":31900,"time":72.5,"velocity":0.7086614173228346},{"duration":0.125,"durationTicks":55,"midi":36,"name":"C2","ticks":32120,"time":73,"velocity":0.7086614173228346},{"duration":0.125,"durationTicks":55,"midi":42,"name":"F#2","ticks":32120,"time":73,"velocity":0.7086614173228346},{"duration":0.125,"durationTicks":55,"midi":36,"name":"C2","ticks":32340,"time":73.5,"velocity":0.7086614173228346},{"duration":0.125,"durationTicks":55,"midi":42,"name":"F#2","ticks":32340,"time":73.5,"velocity":0.7086614173228346},{"duration":0.125,"durationTicks":55,"midi":36,"name":"C2","ticks":32560,"time":74,"velocity":0.7086614173228346},{"duration":0.125,"durationTicks":55,"midi":38,"name":"D2","ticks":32560,"time":74,"velocity":0.7086614173228346},{"duration":0.125,"durationTicks":55,"midi":42,"name":"F#2","ticks":32560,"time":74,"velocity":0.7086614173228346},{"duration":0.125,"durationTicks":55,"midi":51,"name":"D#3","ticks":32560,"time":74,"velocity":0.7086614173228346}]}]}